<?xml version="1.0" encoding="utf-8"?>
<!-- Generator: Adobe Illustrator 24.1.0, SVG Export Plug-In . SVG Version: 6.00 Build 0)  -->
<svg version="1.1" id="Calque_1" xmlns="http://www.w3.org/2000/svg" xmlns:xlink="http://www.w3.org/1999/xlink" x="0px" y="0px"
	 viewBox="0 0 500.2 499.4" style="enable-background:new 0 0 500.2 499.4;" xml:space="preserve">
<style type="text/css">
	.st0{fill:#FFFFFF;}
	.st1{fill:#2A4AFB;}
</style>
<path class="st0" d="M244,329.3c0,17.3,14,31.3,31.2,31.3c17.3,0,31.2-14,31.2-31.3c0-17-13.5-30.8-30.3-31.3l17.2-24.5l-11.8-8.2
	L250.7,310C246.5,315.3,244,322,244,329.3L244,329.3z M275.2,312.4c9.3,0,16.8,7.5,16.8,16.9s-7.5,16.9-16.8,16.9
	s-16.8-7.6-16.8-16.9C258.4,319.9,265.9,312.4,275.2,312.4z M344.5,361.2c17.5,0,31.7-22,31.7-47.6c0-25.5-14.2-47.2-31.7-47.2
	s-31.7,21.6-31.7,47.2S327,361.2,344.5,361.2z M344.5,281c9.5,0,17.2,15,17.2,32.6s-7.7,32.8-17.2,32.8s-17.2-15.1-17.2-32.8
	S335,281,344.5,281z M167.5,234.3H182v-16.2h7.3v-14.4h-7.4V140h-7.2l-49.8,71.1v7h42.6V234.3L167.5,234.3z M147.5,203.8l20-28.2
	v28.2H147.5z"/>
<path class="st0" d="M499.8,249.9c0,64.6-24.5,123.5-64.8,167.9c40.4-44.4,65-103.4,65-168.1c0-138-111.9-249.9-249.9-249.9
	c-64.7,0-123.7,24.6-168.1,65C126.4,24.5,185.3,0,249.9,0C387.9,0,499.8,111.9,499.8,249.9L499.8,249.9z"/>
<path class="st0" d="M227,234.8c17.5,0,31.7-22,31.7-47.6S244.5,140,227,140s-31.7,21.6-31.7,47.2S209.5,234.8,227,234.8L227,234.8z
	 M227,154.6c9.5,0,17.2,15,17.2,32.6S236.5,220,227,220s-17.2-15.1-17.2-32.8S217.5,154.6,227,154.6L227,154.6z M252.7,273.6
	l27.4-39.1l-11.8-8.2l-27.1,39.4L252.7,273.6z"/>
<path class="st1" d="M227,220c9.5,0,17.2-15.2,17.2-32.8s-7.7-32.6-17.2-32.6s-17.2,14.9-17.2,32.6S217.5,220,227,220z M167.5,175.6
	l-20,28.2h20V175.6z"/>
<ellipse class="st1" cx="275.2" cy="329.3" rx="16.8" ry="16.9"/>
<path class="st1" d="M499.8,249.9C499.8,111.9,387.9,0,249.9,0C185.3,0,126.4,24.5,82,64.8C31.6,110.5,0,176.5,0,249.9
	c0,138,111.9,249.9,249.9,249.9c73.4,0,139.4-31.6,185.1-82C475.3,373.4,499.8,314.5,499.8,249.9z M344.5,266.4
	c17.5,0,31.7,21.7,31.7,47.2c0,25.6-14.2,47.6-31.7,47.6s-31.7-22-31.7-47.6S327,266.4,344.5,266.4z M293.3,273.5L276.1,298
	c16.8,0.5,30.3,14.3,30.3,31.3c0,17.3-13.9,31.3-31.2,31.3c-17.2,0-31.2-14-31.2-31.3c0-7.3,2.5-14,6.7-19.3l30.8-44.7L293.3,273.5
	L293.3,273.5z M280.1,234.5l-27.4,39.1l-11.5-7.9l27.1-39.4L280.1,234.5L280.1,234.5z M227,140c17.5,0,31.7,21.6,31.7,47.2
	s-14.2,47.6-31.7,47.6s-31.7-22-31.7-47.6S209.5,140,227,140L227,140z M125,211.1l49.8-71.1h7.2v63.7h7.4v14.4h-7.3v16.2h-14.5
	v-16.2H125V211.1L125,211.1z"/>
<path class="st1" d="M344.5,346.4c9.5,0,17.2-15.2,17.2-32.8S354,281,344.5,281s-17.2,14.9-17.2,32.6S335,346.4,344.5,346.4z"/>
</svg>
