<?xml version="1.0" encoding="utf-8"?>
<!-- Generator: Adobe Illustrator 24.1.0, SVG Export Plug-In . SVG Version: 6.00 Build 0)  -->
<svg version="1.1" id="Calque_1" xmlns="http://www.w3.org/2000/svg" xmlns:xlink="http://www.w3.org/1999/xlink" x="0px" y="0px"
	 viewBox="0 0 499.9 130.6" style="enable-background:new 0 0 499.9 130.6;" xml:space="preserve">
<style type="text/css">
	.st0{fill:#008FFF;}
</style>
<path class="st0" d="M291.2,14.8L320,26.1l-28.8,10.7v15.4l49.4-20V20L291.2,0V14.8z"/>
<path d="M26.7,71.8c-13.8,0-23.9,6.1-24.8,19h15.3v-0.3c0.3-4.3,4.3-7.4,8.6-7.1c5.8,0,8.6,3.4,8.6,9.2v2.8h-7.1
	c-15,0-27.3,4.6-27.3,19v0.6c0,11.6,8.6,16.9,19,16.9c6.4,0.3,12.3-2.8,15.9-7.7v6.7h15.6V92.3C50.3,77.6,40.2,71.8,26.7,71.8z
	 M33.7,111.3c0.3,6.1-4.9,9.2-10.4,9.2s-8-2.8-8-6.7v-0.6c0-5.2,4-7.4,12-7.4h6.4C33.7,105.8,33.7,111.3,33.7,111.3z M87.4,119.9
	c-7.7,0-11.6-5.2-11.6-16.9v-1.8c0-11.3,4.6-16.9,11.6-16.9c5.5,0,8.6,3.7,9.5,9.2h15.3c-1.2-15-12.3-21.8-25.1-21.8
	c-15.3,0-27.6,10.4-27.6,30v0.6c0,19.6,11.6,29.4,27.6,29.4c15.6,0,24.5-9.5,25.8-22.4H98.2C96.9,115.9,92.9,119.9,87.4,119.9
	L87.4,119.9z M147.1,119.9c-7.7,0-11.6-5.2-11.6-16.9v-1.8c0-11.3,4.6-16.9,11.6-16.9c5.5,0,8.6,3.7,9.5,9.2H172
	c-1.2-15-12.3-21.8-25.1-21.8c-15.3,0-27.6,10.4-27.6,30v0.6c0,19.6,11.6,29.4,27.6,29.4c15.6,0,24.5-9.5,25.4-22.4h-14.4
	C157,115.9,152.7,119.9,147.1,119.9L147.1,119.9z M206.6,71.8c-15.6,0-27.6,10.7-27.6,30v1.2c0,19.3,11.3,29.1,27.9,29.1
	c15,0,24.2-8.3,25.8-19.3h-15c-0.6,4.6-5.2,8-10.1,7.4c-7.1,0-11.3-4-12-14.4H233v-6.7C233,80,221,71.8,206.6,71.8z M195.9,95.1
	h-0.3H195.9c1.2-9.2,5.8-12,10.7-12.3c6.4,0,10.4,3.7,10.7,12.3H195.9z M276.5,71.8c-7.4-0.3-14.1,3.4-17.5,9.8V73h-15.9v57.6H259
	V93.8c0.3-5.2,4.9-9.5,10.1-9.2c5.8,0,8.6,3.1,8.6,9.8v36.2H294V92C294,77.9,286.9,71.8,276.5,71.8L276.5,71.8z M324,112.2V84.9h11
	v-12h-11V55.4l-15.9,6.7v10.7H301v12h6.7v29.3c0,11.6,5.8,17.5,18.4,17.5c3.1,0,6.1-0.3,9.2-1.2v-12.6c-1.8,0.6-3.7,0.9-5.5,0.9
	C326.2,118.7,324,116.5,324,112.2L324,112.2z M379.5,108.9v1.5c-0.3,5.2-4.9,9.5-10.1,9.2c-5.8,0-8.3-3.1-8.3-9.8V73h-16.2v38.9
	c0,13.5,7.7,19.9,18.1,19.9c7.1,0.3,13.5-3.4,16.9-9.8v8.6h16.2V73h-16.2L379.5,108.9L379.5,108.9z M423.7,83.4V72.7h-15.9v57.6
	h15.9v-29.7c0-9.5,6.4-12.9,17.5-12.9V71.8C433.2,71.8,426.1,76.4,423.7,83.4z M473.9,120.5c-7.1,0-11.3-4-12-14.4h37.4v-7.4h0.6
	c0-19-12-27-26.4-27c-15.6,0-27.6,10.7-27.6,30v1.2c0,19.3,11.3,29.1,27.9,29.1c15,0,23.9-8.3,25.8-19.3h-15
	C483.4,117.8,478.8,120.8,473.9,120.5L473.9,120.5z M473.6,82.8c6.4,0,10.4,3.7,10.7,12.3h-21.8C463.8,85.6,468.4,82.8,473.6,82.8
	L473.6,82.8z"/>
</svg>
