<svg version="1.1" id="Calque_1" xmlns="http://www.w3.org/2000/svg" x="0" y="0" viewBox="0 0 360 507" xml:space="preserve">
  <style>
    .st0{fill:#b4efe8}.st1{fill:#e62460}.st2{fill:#fff}.st3,.st4{fill:none;stroke:#000;stroke-width:.5;stroke-miterlimit:10}.st4{fill:#fff}.st5{fill:#00baae}.st6,.st7,.st8{fill:#1a968a;stroke:#000;stroke-width:.5;stroke-miterlimit:10}.st7,.st8{fill:#00baae}.st8{fill:none;stroke-width:.8161}.st9{fill:#1a968a}.st10{fill:none;stroke:#000;stroke-width:2.4483;stroke-linecap:round;stroke-miterlimit:10}
  </style>
  <path class="st0" d="M359.7 275.7h-47.9v29.8h-39.2v-81.7H50.2v25.9H0v185.9H359.7V275.7z"/>
  <path class="st1" d="M175.6 314.9c52.7 0 95.4-42.7 95.4-95.4s-42.7-95.4-95.4-95.4-95.4 42.7-95.4 95.4 42.7 95.4 95.4 95.4z"/>
  <path class="st2" d="M165.4 171.8l-1.2 2.9-15.1-6 1.5-3.5 14.8 6.6zM179.1 165l-2.9-1.1 4.7-13.6 3.6 1.3-5.4 13.4zM185.9 171.7l-1.8-1.7 11.1-11.8 2.2 2.1-11.5 11.4zM168.5 163.6l-2.9 1.2-4.3-9.1 3.5-1.5 3.7 9.4zM208.1 227.1c-6.1-1.3-10.9-3.3-17.1-4.6-2.9-9.6-6.9-16.7-9.8-26.3 1.2-2.1 1.5-6 1.1-10.8-.3-4.4-1.9-8.2-3.2-9.9-.6-.7-2.6-.3-2.5.4.2 2.7 2.2 8.5 1.4 8.7-.5.2-1.5-1.9-2-1.7-.3.1-.2 1 0 2.7.5 3.4.9 4.3 1 5.8.1 1 0 2.4-.5 4.1-.1.4-.2.9-.1 1.3.3 3 1.9 13.1 4.1 20.9 1.4 4.9 2.6 9.2 3.8 10.8.9 1.2 1.9 2.3 2.5 2.9 6.8 2.6 15.9 5.9 22.7 8.5"/>
  <path class="st3" d="M208.1 227.1c-6.1-1.3-10.9-3.3-17.1-4.6-2.9-9.6-6.9-16.7-9.8-26.3 1.2-2.1 1.5-6 1.1-10.8-.3-4.4-1.9-8.2-3.2-9.9-.6-.7-2.6-.3-2.5.4.2 2.7 2.2 8.5 1.4 8.7-.5.2-1.5-1.9-2-1.7-.3.1-.2 1 0 2.7.5 3.4.9 4.3 1 5.8.1 1 0 2.4-.5 4.1-.1.4-.2.9-.1 1.3.3 3 1.9 13.1 4.1 20.9 1.4 4.9 2.6 9.2 3.8 10.8.9 1.2 1.9 2.3 2.5 2.9 6.8 2.6 15.9 5.9 22.7 8.5"/>
  <path class="st4" d="M224.3 413.4v18.9c0 .6-.5 1.1-1.1 1.1l-19.8.1c-.2 0-.2-.2-.1-.3l13.6-7.8v-12h7.4z"/>
  <path class="st3" d="M217 425.4l4 8.1"/>
  <path d="M202.3 434.6l22.2-.1v-1l-22.2.1v1z"/>
  <path class="st4" d="M255.2 413.3v18.9c0 .6-.5 1.1-1.1 1.1l-19.8.1c-.2 0-.2-.2-.1-.3l13.6-7.9v-11.9h7.4z"/>
  <path class="st3" d="M247.9 425.3l4 8.1"/>
  <path d="M233.3 434.5l22.2-.1v-1l-22.2.1v1z"/>
  <path class="st5" d="M233.9 360.1l-3.8 59.1h-17.4l-3-107.2 3.5-12.1 41.6-1.4s3.4 14.7 3.6 19.9c.1 2.7-.1 5.3-.2 7.3-.2 2.4-.3 4.9-.3 7.3l1 84.4-14.8.2-15.6-88.6"/>
  <path class="st3" d="M233.9 360.1l-3.8 59.1h-17.4l-3-107.2 3.5-12.1 41.6-1.4s3.4 14.7 3.6 19.9c.1 2.7-.1 5.3-.2 7.3-.2 2.4-.3 4.9-.3 7.3l1 84.4-14.8.2-15.6-88.6"/>
  <path d="M207.9 191.1c-.7-.9-1.9-2.6-1.6-4.4 0-.2.3-1.6 1.3-2 1.2-.5 2.4.8 2.9.3.6-.5-.4-2 .1-2.5s1.6.5 3 .4c1.5-.1 2.4-1.1 2.9-1.6 2.6-2.2 9.9-2 15.3 1.7.5.3 6 4.3 6.7 11.3.5 4.3-1.1 7.7-2 9.8-1.3 3-2 4.4-3.4 5.2-7.1 4.4-23.1-15.5-25.2-18.2z"/>
  <path class="st2" d="M231.5 199.3s.5 3.1.4 4.9 1.1 6.4 1.4 7.5.7 3.1 3.3 4.5 6 3 6 3l-15.1 15.4-9.7-6 2.9-3.5s-1.2-1.2-1.4-3.3c-.2-2.2 0-3.8 0-3.8l-.9-11"/>
  <path class="st3" d="M231.5 199.3s.5 3.1.4 4.9 1.1 6.4 1.4 7.5.7 3.1 3.3 4.5 6 3 6 3l-15.1 15.4-9.7-6 2.9-3.5s-1.2-1.2-1.4-3.3c-.2-2.2 0-3.8 0-3.8l-.9-11"/>
  <path class="st6" d="M240.4 218.1l11.3 3.3s3.1-.2 6.9 5.6c2.4 3.6 5.5 7.8 7.5 10.4 1.2 1.5.9 3.7-.7 4.9-1.1.8-1.7 5.4-3.3 4.9-4.9-1.5-5.5.7-7.4.9l1.2 6.8-1.4 15.9c-.8 9.3-.3 18.7 1.5 27.9l1 5.2s-23.4 3.3-33.7 2.3c-10.2-1-12.3-1.5-12.3-1.5l2.8-40.3-.4-13.8c-.1-4-2.8-7.5-6.6-8.7-1.1-.8-1-15.2-.2-16.3.4-.5 6.4-2.1 6.7-2.2 1.8-.7 6-1.7 6-1.7s4.8 5.3 9.9 5c5.2-.3 11.2-8.6 11.2-8.6z"/>
  <path class="st4" d="M258.5 294.3l-1.1 7.6-3.6 3.4-2.2 3.4-3 2.9 1.2 1.4 3-1.9-3.6 9s-.2 4.4 4.8 1.3c4.9-3.1 9.2-6.7 10.7-15.3s.9-9.2 1.7-12c.6-2.1 1.9-19 1.9-19 .8-3.6 1.9-12.2 1.5-20-.4-7.5-3.2-14.5-3.2-14.5l-4 3.6c-.7.6-1.9 1.4-2.8 1.7l-3.4 1.4.5 1.5c.2.7.3 1.4.4 2.2l.8 19.1.4 24.2z"/>
  <path class="st2" d="M229.1 211.3c-1.9 3.1-5 5.2-8.7 5.5-6.3.5-11.8-4.7-12.2-11.5-.1-1.7-.2-4.4.3-5.9 1.1-3.5 4-6.1 7.6-7.1 2.1-.6 5.4-.4 5.9-.2.2.1 3.9 1.1 4.4 2 1 1.9.6 2.8.5 4.5 0 .1 1.2-1.3 2.5-1.2 2.2.2 2.1 1 2.3 3.1.1 2.5.2 5-1.1 5.5"/>
  <path class="st3" d="M229.1 211.3c-1.9 3.1-5 5.2-8.7 5.5-6.3.5-11.8-4.7-12.2-11.5-.1-1.7-.2-4.4.3-5.9 1.1-3.5 4-6.1 7.6-7.1 2.1-.6 5.4-.4 5.9-.2.2.1 3.9 1.1 4.4 2 1 1.9.6 2.8.5 4.5 0 .1 1.2-1.3 2.5-1.2 2.2.2 2.1 1 2.3 3.1.1 2.5.2 5-1.1 5.5"/>
  <path class="st4" d="M137.5 220.5c-4.6-.9-10.8-3.3-10.7-6.2.1-1.3.6-2.4 1.1-3.2 4.2-1.5 7.8-4.9 8.2-10 0-.3 1.4-.1 1.4-.4 0-.7-1.2-3.5-1.3-4.1-1-6.5-6.6-11.8-13.5-11.8-7.5 0-13.6 6.1-13.6 13.6 0 4.8 2.5 9.1 6.3 11.5l-2.8 2.6L111 224l11.6 6.6 15.4-4.1-.5-6z"/>
  <path class="st6" d="M145 309.6l-1.4 105.9h-14.8L118.3 358l-1.6 57.5h-13.5l-6-86.7c-.3-3.3-.8-6.6-.8-9.9l-.4-9.2c0-5.7 2-13.2 5.6-17.6.4-.4.9-1.1 1.1-1.6l2.2-4.3s30.8-5.8 38.2.4c1.1 6.1 2 16.5 1.9 23z"/>
  <path class="st7" d="M104.7 280.9s-10.7-39-7.5-47.8 7.5-13.2 7.5-13.2l10.6 4.3c4.2 1.7 8.8 1.7 13-.1l7.5-3.2c1.6-.7 35.3-21.4 35.3-21.4l3.6 5.8s-17.9 22.7-25.1 26.8c-1.6.9-3 2.9-4.2 5.2-2.4 4.5-3.5 9.5-3.6 14.5l-.4 29.1h-36.7z"/>
  <path class="st7" d="M141.2 280.9h-36.5v5.2h36.5v-5.2z"/>
  <path d="M125.1 198c-.8.8-.5-.3-1.1-1-.8-.9-2.6-1.3-4.2 1.4-1.4 2.3.5 5.6 2.8 4.8.6-.2.6-.2 1-.1.8.3.2 3.9-1.8 5-3.4 2-3.2 5.3-3.2 6.8 0 5.3-9.5-11-9.5-16.6 0-7.5 6.1-13.6 13.6-13.6 4 0 7.6 1.7 10.1 4.4.4.5-3.7 3.6-4.1 4.2-1.3 1.6-2.7 3.8-3.6 4.7z"/>
  <path d="M120.9 183.1c0 2.8-2.5 5.1-5.5 5.1s-5.5-2-5.5-4.8 2.8-5.4 5.8-5.4 5.2 2.2 5.2 5.1z"/>
  <path class="st4" d="M132.9 415.6v16.9c0 .5.4 1 1 1h15.6c.2 0 .2-.2.1-.3l-10.2-6.9v-10.6h-6.5v-.1z"/>
  <path class="st8" d="M139.5 426.2l-3.6 7.2"/>
  <path d="M150.6 433.5h-17.8v.9h17.8v-.9z"/>
  <path class="st4" d="M107.3 415.6v16.9c0 .5.4 1 1 1h15.6c.1 0 .2-.2.1-.3l-10.2-6.9v-10.6h-6.5v-.1z"/>
  <path class="st8" d="M113.8 426.2l-3.6 7.2"/>
  <path d="M124.9 433.5h-17.8v.9h17.8v-.9zM108.9 198.4l.2 14.8c0 2.1-1.5 3.7-3.4 3.7H100c-6.2 0-11.3 5.5-11.3 12.3V250c0 2.1-1.5 3.7-3.4 3.7-2.9 0-5.2 2.6-5.2 5.7v.8c0 3.2 2.3 5.7 5.2 5.7h10.3c8.7 0 15.7-7.7 15.7-17.2v-12.1c0-2.1 1.5-3.7 3.4-3.7s3.4-1.7 3.4-3.7l.4-14.2c0-.9-.6-9.3-1.1-10l-1.3-5.6c-1.9-2.6-7.2-4.5-7.2-1zM82.3 270h-6c-.5 0-.9-.4-.9-.9v-.4c0-.5.4-.9.9-.9h6c.5 0 .9.4.9.9v.4c0 .5-.4.9-.9.9z"/>
  <path d="M85.4 251.5h-1.3c-.5 0-.9-.4-.9-.9v-.4c0-.5.4-.9.9-.9h1.3c.5 0 .9.4.9.9v.4c0 .5-.4.9-.9.9z"/>
  <path class="st9" d="M113.9 296c-2.8 5.6-3.9 11.9-3.2 18.1l.8 6.6 17.3 94.8"/>
  <path class="st3" d="M113.9 296c-2.8 5.6-3.9 11.9-3.2 18.1l.8 6.6 17.3 94.8"/>
  <path d="M109.1 189.7c.8 0 1.5-.7 1.5-1.5s-.7-1.5-1.5-1.5-1.5.7-1.5 1.5.6 1.5 1.5 1.5z"/>
  <path class="st10" d="M108.6 265.3c-1.7 3.1-5 4.7-7.6 4.7"/>
  <path class="st4" d="M171.5 183.3c.3-4.4 1.9-8.2 3.2-9.9.6-.7 2.6-.3 2.5.4-.1 2.7.9 8 .7 9.7-.3 2.2-.6 4.9-.6 7.1 0 .2-.8 1-1 1.9-.7 4-1.7 12.7-1.7 12.7l-3.6-5.8s.6-3.6.7-7.7c0-.5-.5-1.2-.5-1.8 0-2.4.1-4.9.3-6.6z"/>
</svg>
