<svg version="1.1" id="Calque_1" xmlns="http://www.w3.org/2000/svg" x="0" y="0" viewBox="0 0 360 507" xml:space="preserve">
  <style>
    .st0{fill:#00baae}.st1,.st2{fill:none;stroke:#000;stroke-width:.7305;stroke-miterlimit:10}.st2{fill:#b4efe8;stroke-width:.5}.st3{fill:#00a595}.st4{fill:#81e2d8}.st5,.st6,.st7{fill:#fff;stroke:#000;stroke-width:.5;stroke-miterlimit:10}.st6,.st7{fill:none}.st7{fill:#00baae}.st8{fill:#fff}.st9{fill:none;stroke:#000;stroke-width:.5;stroke-linecap:round;stroke-miterlimit:10}.st10{fill:#1a968a}.st11,.st12{fill:#e52460;stroke:#000;stroke-width:.5;stroke-miterlimit:10}.st12{fill:#f391ba}
  </style>
  <path class="st0" d="M22.4 121.7c-4 0-8 .4-11.8 1.2h-.1l-.1-.1c-3-2.8-6.6-5.1-10.4-6.8v121.7c6.9 2.8 14.5 4.3 22.4 4.3 16.6 0 31.6-6.7 42.5-17.6 10.9-10.9 17.6-25.9 17.6-42.5 0-33.3-26.9-60.2-60.1-60.2z"/>
  <path class="st1" d="M.2 436h359.7"/>
  <path class="st2" d="M360-100.7H187.3v535.6H360v-535.6z"/>
  <path class="st3" d="M360 125.5H220.6v310.4H360V125.5z"/>
  <path class="st4" d="M360 135.3H230.7v300.1H360V135.3z"/>
  <path class="st5" d="M260.2 416.5v16.9c0 .6-.4 1-1 1h-17.6c-.1 0-.2-.2-.1-.3l12.2-6.9v-10.7h6.5zM287.8 416.5v16.9c0 .6-.4 1-1 1h-17.6c-.1 0-.2-.2-.1-.3l12.2-6.9v-10.7h6.5z"/>
  <path d="M294.2 272.2c-1.6 0-2.9-1.1-3.3-2.6l-5.9-27.7 8.7-4.4h.1c1.8 0 3.2 1.4 3.2 3.2v19.1c0 1.7 1.4 3 3 3 2.6 0 4.7 2.1 4.7 4.7s-2.1 4.7-4.7 4.7h-5.8z"/>
  <path class="st0" d="M232.8 264.6c-.4-2.4.8-10.2 1.4-11.6 2.2-5 8.6-20.1 12.1-26.7.3-.6.4 1.7.5 2.4l.9 17.3c0 .1 0 .2-.1.3l-4.5 9.4c-.8 1.7-1.2 8.5-1.2 8.5"/>
  <path class="st6" d="M232.8 264.6c-.4-2.4.8-10.2 1.4-11.6 2.2-5 8.6-20.1 12.1-26.7.3-.6.4 1.7.5 2.4l.9 17.3c0 .1 0 .2-.1.3l-4.5 9.4c-.8 1.7-1.2 8.5-1.2 8.5"/>
  <path class="st7" d="M287.8 221.7c8.2.8 9.2 7.1 9.2 15.4l-2.6 43.2-40 3.3-7.2-41.2c-1.2-6-2.2-14.4-.4-16.7l1.4-1c.7-.5 1.6-.9 2.5-.9l33-3 4.1.9z"/>
  <path class="st5" d="M255.8 210.9s4.9 13.1-3.9 13.6c0 0 6.7 6.1 15.9 3.4 9.2-2.7 11-5.6 11-5.6l-5.8-16.8-1.2-5h-7.7l-8.3 10.4z"/>
  <path class="st8" d="M273.9 202.8c0-6.4-6.8-11.1-12.9-11.6-7.8-.5-11.1 5.2-11.1 11.6 0 6.4 5 11.6 11.1 11.6 2.6 0 5-.9 6.9-2.5"/>
  <path class="st6" d="M273.9 202.8c0-6.4-6.8-11.1-12.9-11.6-7.8-.5-11.1 5.2-11.1 11.6 0 6.4 5 11.6 11.1 11.6 2.6 0 5-.9 6.9-2.5"/>
  <path d="M270.3 198.7c-.1-.5-.2-.9-.3-1.2-1.5-5.8-15.2-7.2-17.7-2.8-1.2 2.2-2 4.5-2 4.5l-.6 1.6v2.6l.4 1.9s-1.6-2.4-1.1-7.9c.4-5.5 2.7-12 11-13.5 6.5-1.2 17.8 2.9 18 17.1 0 1.5.2 5.6.4 9.2.2 4.1 2.6 7.8 6.3 9.6l2.8 1.4c1 .5.6.7-.5.8l-5.5-.4c-2.4-.4-3.7 1.5-3.7 1.5-7.2-1.9-4.9-6.4-5.7-12.7-.2-1.6-.4-3.1-.6-4.4 0-.3-.1-.6-.1-.8"/>
  <path class="st8" d="M271.2 205.3c2.6.4 3.4-1.8 2.9-4.1-.7-3.2-2.8-3.7-3.9-2.4"/>
  <path class="st9" d="M271.2 205.3c2.6.4 3.4-1.8 2.9-4.1-.7-3.2-2.8-3.7-3.9-2.4"/>
  <path d="M273.1 183.5c.8-2.3-.6-4.9-3.1-5.8-2.5-.9-5.2.3-6 2.6-.8 2.3.6 4.9 3.1 5.8 2.5.9 5.2-.2 6-2.6z"/>
  <path class="st7" d="M254.1 288.6l38.8-2.4 1.4-5.9-40.2 2.5v5.8z"/>
  <path class="st10" d="M270.2 323.1l8.6 95.6 15.2.1 5.8-87.4s1.7-9.5 1.7-16.7c-.1-9.4-3.5-15.2-6.4-21.9-.5-1.1-1.7-2.4-1.8-3.6l-.4-3.1-38.8 2.4-1 5.1c-.3 1.5-.5 4.1-.5 5.6l-1.8 119.4h13.8l8.2-66.2"/>
  <path class="st6" d="M270.2 323.1l8.6 95.6 15.2.1 5.8-87.4s1.7-9.5 1.7-16.7c-.1-9.4-3.5-15.2-6.4-21.9-.5-1.1-1.7-2.4-1.8-3.6l-.4-3.1-38.8 2.4-1 5.1c-.3 1.5-.5 4.1-.5 5.6l-1.8 119.4h13.8l8.2-66.2M253.7 427.2l3.6 7.2"/>
  <path d="M240.6 435.3h19.8v-.9h-19.8v.9z"/>
  <path class="st6" d="M281.3 427.2l3.6 7.2"/>
  <path d="M268.2 435.3H288v-.9h-19.8v.9z"/>
  <path class="st11" d="M279 258.4v-1.2c-9.9-1.6-19.8-3.1-29.7-4.7l-66.6 4.5-.8 59.7 66.2 2h30l.9-60.3z"/>
  <path class="st6" d="M249.2 254.6v60.3"/>
  <path class="st12" d="M269.3 280.6l-10.9-.4c-1.6-.1-2.8-1.4-2.8-3v-.5c.1-1.6 1.4-2.8 3-2.8l10.9.4c1.6.1 2.8 1.4 2.8 3v.4c-.1 1.8-1.4 3-3 2.9z"/>
  <path class="st5" d="M282 273.7l-8.7 2.6s-4-4.3-4.7-4.3c-.3 0-.9.2-.9.6 0 .4-.8 2.4-.8 2.4l-7.6-.9c-.5.7-.7 2.9-.1 3.7.8 1.1 7.4 2.9 8.6 3.2l1.8.4c.8.2 1.7.1 2.5-.1l11.7-1.2-1.8-6.4z"/>
  <path class="st0" d="M289.6 250.4c-.9.9 9.6 15.8 8.4 15.9l-12.9 4.2c-2.6.1-4.7 2.3-4.7 4.9 0 2.7 2.2 4.9 4.9 4.9l4.4-1.1c1.3 0 18.3-4.1 19.2-5 3.7-3.8-12.3-46.1-14.1-48.9"/>
  <path class="st6" d="M289.6 250.4c-.9.9 9.6 15.8 8.4 15.9l-12.9 4.2c-2.6.1-4.7 2.3-4.7 4.9 0 2.7 2.2 4.9 4.9 4.9l4.4-1.1c1.3 0 18.3-4.1 19.2-5 3.7-3.8-12.3-46.1-14.1-48.9"/>
  <path class="st5" d="M161.8 414.8v18.9c0 .6.5 1.1 1.1 1.1h19.8c.2 0 .2-.2.1-.3l-13.7-7.8v-11.9h-7.3z"/>
  <path class="st6" d="M169.2 426.8l-4 8.1"/>
  <path d="M183.9 434.9h-22.2v1h22.2v-1z"/>
  <path class="st5" d="M130.9 414.8v18.9c0 .6.5 1.1 1.1 1.1h19.8c.2 0 .2-.2.1-.3l-13.7-7.8v-11.9h-7.3z"/>
  <path class="st6" d="M138.2 426.8l-4 8.1"/>
  <path d="M152.9 434.9h-22.2v1h22.2v-1z"/>
  <path class="st8" d="M164.9 250.5l1.4 24.2 4 32.3 3 12.7s1.1 2.5 0 6.7c-1.1 4.1-4.5 5.2-4.5 5.2L157 310.2l-3.2-57.6 11.1-2.1z"/>
  <path d="M164.9 250.5h-.2l1.4 24.2 4 32.3 3 12.7c.1.2.5 1.3.5 3 0 1-.1 2.1-.5 3.5-.5 2-1.6 3.3-2.6 4-.5.4-.9.6-1.2.8-.2.1-.3.1-.4.2h-.1l.1.2.2-.1-11.8-21.1-3.1-57.3 10.9-2.2-.2-.2h-.2.2v-.2l-11.3 2.2 3.2 57.9 11.9 21.4.2-.1s3.5-1.1 4.7-5.4c.4-1.4.5-2.6.5-3.6 0-2-.5-3.2-.5-3.2l-.2.1.2-.1-3-12.6-4-32.2-1.4-24.5-.3.1v.2z"/>
  <path class="st0" d="M152.5 324.9l-10.7 94.7-14.3-.9-4.6-86.5s-1.1-5-1.4-10.2c-.2-5.2 2-20.1 2-20.1l41.6-1.9 3.4 23.9 3.9 93.3-16.1 1.5-7.5-61"/>
  <path class="st6" d="M152.5 324.9l-10.7 94.7-14.3-.9-4.6-86.5s-1.1-5-1.4-10.2c-.2-5.2 2-20.1 2-20.1l41.6-1.9 3.4 23.9 3.9 93.3-16.1 1.5-7.5-61"/>
  <path d="M162.5 191c.7-1 1.7-2.7 1.2-4.5-.1-.2-.4-1.5-1.4-1.9-1.2-.4-2.3 1-2.9.5-.6-.4.3-2-.3-2.5-.5-.4-1.5.6-3 .6s-2.5-1-3-1.4c-2.7-2.1-10.1-1.3-15.1 2.8-.5.4-5.6 4.7-5.9 11.7-.2 4.3 1.6 7.6 2.7 9.6 1.5 2.9 2.3 4.3 3.7 5 7.6 4 22-17.1 24-19.9z"/>
  <path class="st8" d="M139.5 200.9s-.3 3.1 0 4.9-1.3 6.3-1.6 7.4c-.2 1.1.2 3.3-2.3 4.9-2.5 1.5-5.8 3.4-5.8 3.4l16.2 14.3 9.2-6.6-3.1-3.3s1.1-1.2 1.1-3.4-.3-3.8-.3-3.8l.1-11"/>
  <path class="st6" d="M139.5 200.9s-.3 3.1 0 4.9-1.3 6.3-1.6 7.4c-.2 1.1.2 3.3-2.3 4.9-2.5 1.5-5.8 3.4-5.8 3.4l16.2 14.3 9.2-6.6-3.1-3.3s1.1-1.2 1.1-3.4-.3-3.8-.3-3.8l.1-11"/>
  <path class="st10" d="M132 220.3l-11 4.1s-3.1 0-6.5 6c-2.1 3.7-4.9 8.1-6.7 10.9-1 1.6-.6 3.8 1 4.8 1.2.8 2.2 3.9 3.6 4.7 2.5 1.4 5.6.3 7.4.4l-.7 6.9 2.5 15.8c1.5 9.2 1.6 18.6.5 27.9l-.7 5.3s23.6 1.6 33.7-.1c10.1-1.8 12.1-2.4 12.1-2.4l-5.6-40v-10l3.1-2.8c1-.9 1.6-2.2 1.7-3.6l.2-7.2c.1-3 .2-5.3-.3-7.9-.3-1.4-.9-2.6-1.8-3.7-.4-.5-3.6-2.3-3.9-2.4-5.7-2-7.7-3-7.7-3s-4.2 4.1-9.3 4.1-11.6-7.8-11.6-7.8z"/>
  <path d="M132 220.3l-.1-.2-11 4.1.1.2v-.2c-.1 0-3.3.1-6.7 6.2-2.1 3.7-4.9 8.1-6.7 10.9-.4.6-.6 1.3-.6 2 0 1.2.6 2.4 1.7 3.1.5.3 1.1 1.3 1.6 2.2.6 1 1.2 2 2 2.5 1 .6 2.2.7 3.3.7 1.6 0 3.1-.3 4.1-.3h.1v-.2h-.2l-.7 6.9 2.5 15.9c.8 5.2 1.2 10.4 1.2 15.6 0 4.1-.3 8.2-.8 12.3l-.7 5.6h.3s9.9.7 19.6.7c5.3 0 10.6-.2 14.2-.8 10.1-1.8 12.1-2.4 12.2-2.4l.2-.1-5.7-40.2V255l3-2.7c1.1-1 1.7-2.3 1.8-3.8l.2-7.2c0-1.2.1-2.4.1-3.5 0-1.5-.1-3-.4-4.5-.3-1.4-.9-2.7-1.8-3.8-.2-.2-.4-.4-.8-.6-.6-.4-1.3-.8-1.9-1.2-.3-.2-.6-.3-.8-.5-.2-.1-.4-.2-.5-.2-2.8-1-4.8-1.7-6-2.3-.6-.3-1-.4-1.3-.6s-.4-.2-.4-.2l-.2-.1-.1.1-.2.2c-.9.8-4.6 3.9-9 3.9-2.4 0-5.3-1.9-7.6-3.9-1.1-1-2.1-1.9-2.8-2.7-.3-.4-.6-.7-.8-.9l-.3-.3-.1-.1-.2.1.2.1-.2.2s1.7 2 4 3.9c2.3 2 5.3 4 7.9 4 5.2 0 9.5-4.2 9.5-4.2l-.2-.2-.1.2s2 1 7.7 3l.1-.2-.1.2s.1 0 .2.1c.4.2 1.2.7 2 1.1.4.2.8.5 1 .7.3.2.5.4.6.4.9 1.1 1.5 2.3 1.7 3.6.3 1.5.4 2.9.4 4.4 0 1.1 0 2.2-.1 3.4l-.2 7.2c0 1.3-.6 2.5-1.6 3.4l-3.2 2.8v10.1l5.6 40h.2l-.1-.2h-.1c-.5.1-3.1.8-12 2.4-3.5.6-8.8.8-14.1.8-4.9 0-9.7-.2-13.4-.3-1.8-.1-3.4-.2-4.5-.2-1.1-.1-1.7-.1-1.7-.1v.2h.2l.7-5.3c.5-4.1.8-8.2.8-12.3 0-5.2-.4-10.5-1.2-15.6l-2.5-15.8.7-7.1h-.5c-1.2 0-2.6.3-4.1.3-1 0-2.1-.2-3-.7-.6-.3-1.3-1.3-1.8-2.3-.6-1-1.1-2-1.8-2.4-1-.6-1.5-1.7-1.5-2.7 0-.6.2-1.2.5-1.8 1.8-2.8 4.6-7.2 6.7-11 1.7-3 3.3-4.5 4.4-5.2.6-.4 1-.5 1.4-.6.2 0 .3-.1.4-.1h.1l11-4.2.2.1-.2.2.2-.2z"/>
  <path class="st8" d="M119.8 251.2l-1.9 23.2 19.9 20.5 6.3 4.5 4.9-.3 4 .7 4.2-.2.2 1.9-3.4.9 9 3.6s3.3 2.9-2.3 4.4c-5.6 1.4-11.1 2.1-18.5-2.8-7.3-4.8-7.3-5.7-9.9-6.9-2.5-1.3-21.9-15.1-23.9-20.7-1.1-2.9-3-12.2-3.1-20.6-.1-7.5 2.1-14.7 2.1-14.7l4.2 3.3c.3.2 2.6 1.5 3 1.6l5.2 1.6z"/>
  <path d="M119.8 251.2h-.2l-1.9 23.3 20 20.6 6.4 4.5 5-.3 4 .7 4-.2.1 1.4-4 1 9.8 3.9.1-.2-.2.2c.2.2.9.9.9 1.6 0 .4-.1.7-.6 1.1-.5.4-1.2.8-2.5 1.1-2.3.6-4.6 1-6.9 1-3.4 0-7-.9-11.3-3.8-3.7-2.4-5.5-3.8-6.7-4.8-1.2-1-1.9-1.5-3.2-2.2-.6-.3-2.3-1.4-4.5-3-3.3-2.3-7.8-5.7-11.6-9s-7-6.6-7.7-8.6c-1.1-2.9-3-12.1-3.1-20.5v-.5c0-3.6.5-7.2 1.1-9.8.3-1.3.5-2.4.7-3.1.2-.7.3-1.2.3-1.2l-.2-.1-.2.2 4.2 3.3c.1.1.3.2.6.3.4.2.9.5 1.4.8.5.3.9.4 1.1.5l5.2 1.7-.1.1h-.2.2l.1-.2-5.2-1.7c-.1 0-.3-.1-.5-.3-.4-.2-.9-.5-1.4-.7-.5-.3-.9-.5-.9-.6l-.2.2.2-.2-4.5-3.5-.1.3s-2.1 6.8-2.1 14.2v.5c.1 8.4 2 17.7 3.1 20.7.6 1.5 2.2 3.4 4.3 5.5 3.2 3.2 7.7 6.7 11.6 9.6 1.9 1.5 3.7 2.7 5.2 3.7 1.4 1 2.5 1.7 3 1.9 1.2.6 1.9 1.1 3.1 2.1 1.2 1 3.1 2.4 6.7 4.8 4.4 2.9 8.1 3.8 11.6 3.8 2.4 0 4.7-.5 7.1-1 1.3-.3 2.2-.8 2.7-1.2.5-.5.8-1 .8-1.5 0-.6-.3-1.1-.5-1.5-.3-.4-.5-.6-.5-.6l-8.4-3.3 2.9-.7-.2-2.3-4.4.2-4-.7-4.9.3-6.2-4.4-19.8-20.4 1.9-23.3-.2-.1-.3.4z"/>
  <path class="st8" d="M142.8 212.7c2.1 3 5.4 4.9 9.1 4.9 6.3 0 11.4-5.5 11.4-12.4 0-1.7-.1-4.4-.7-5.9-1.4-3.4-4.5-5.8-8.1-6.6-2.1-.4-5.4 0-5.9.2-.2.1-3.8 1.4-4.2 2.3-.9 1.9-.4 2.8-.2 4.5 0 .1-1.3-1.2-2.6-1-2.2.3-2.1 1.2-2.1 3.3 0 2.5.1 5 1.5 5.4"/>
  <path class="st6" d="M142.8 212.7c2.1 3 5.4 4.9 9.1 4.9 6.3 0 11.4-5.5 11.4-12.4 0-1.7-.1-4.4-.7-5.9-1.4-3.4-4.5-5.8-8.1-6.6-2.1-.4-5.4 0-5.9.2-.2.1-3.8 1.4-4.2 2.3-.9 1.9-.4 2.8-.2 4.5 0 .1-1.3-1.2-2.6-1-2.2.3-2.1 1.2-2.1 3.3 0 2.5.1 5 1.5 5.4"/>
  <path d="M22.4 121.2c-4 0-7.9.4-11.7 1.1-3.1-2.9-6.7-5.2-10.6-6.9v.5c3.8 1.7 7.4 4 10.4 6.8l.1.1h.1c3.8-.8 7.7-1.2 11.8-1.2 33.2 0 60.1 26.9 60.1 60.1 0 16.6-6.7 31.6-17.6 42.5-11 11-26 17.7-42.6 17.7-1.4 0-2.9-.1-4.3-.2l-.2-15.7c.1-.1.1-.3 0-.4l-.1-4.5 13.9-15.6c.1-.2.1-.4 0-.6-.2-.1-.4-.1-.6 0l-13.3 15-.2-14.5c0-.2-.2-.4-.4-.4s-.4.2-.4.4l.3 19-13.4-18.1c-.1-.2-.4-.2-.6-.1-.2.1-.2.4-.1.6l14 19.1.2 15.8c-6-.5-11.8-1.9-17.2-4.1v.5c5.4 2.2 11.2 3.5 17.3 4.1L20 435.3c0 .2.2.4.4.4s.4-.2.4-.4l-2.8-193c1.4.1 2.9.2 4.3.2 33.5 0 60.6-27.1 60.6-60.6.1-33.6-27.1-60.7-60.5-60.7z"/>
</svg>
