<svg version="1.1" id="Calque_1" xmlns="http://www.w3.org/2000/svg" x="0" y="0" viewBox="0 0 360 507" xml:space="preserve">
  <style>
    .st0{fill:#1a968a}.st1{fill:none}.st2{fill:#fff}.st3{fill:#81e2d8}.st4{fill:#e52460}.st5{fill:#00ccb8}.st6{fill:#00baae}.st7{fill:#00a595}
  </style>
  <path class="st0" d="M138.7 305.3c0-2.4-.1-4.7-.4-7 0 .1-.1.2-.1.3-.2.6-.6 1-1.1 1.3-.5.3-1 .4-1.6.4-.9 0-1.9-.4-2.7-1-.8-.7-1.3-1.7-1.3-2.9v-.2c.1-1.9.3-3.6.3-5.1 0-1.2-.1-2.3-.5-3.3h-32l-2 4c-.3.6-.6 1.1-1.1 1.6-3.6 4.2-5.7 11.8-5.7 17.5l.4 9.2c0 3.3.5 6.6.8 9.9l1 15c1.2.4 2.4 1.3 3.3 2.7.7 1 1 2.1 1 3.2 0 1.4-.5 2.8-1.4 4-.6.9-1.3 1.7-2.1 2.6l4.1 58.8h12.5l1.6-57.3-6.7-36.9-.8-6.6c-.1-1.2-.2-2.5-.2-3.7 0-5.1 1.2-10.1 3.5-14.6l.7.4c-2.2 4.4-3.4 9.3-3.4 14.2 0 1.2.1 2.4.2 3.6l.8 6.6 16 87.7-.2-1.8 1.5 8.4H137l1.5-110.1h.5-.5c.2-.4.2-.7.2-.9z"/>
  <path class="st1" d="M233.4 350.4c-.6-.7-1.4-1.2-2.2-1.5s-1.8-.5-2.8-.5c-1 0-1.9.2-2.8.5s-1.7.9-2.3 1.5c-.6.6-1.1 1.4-1.5 2.2-.4.9-.5 1.8-.5 2.8 0 1 .2 1.9.5 2.8.4.9.9 1.7 1.5 2.3.7.6 1.4 1.1 2.3 1.5.9.4 1.8.5 2.8.5 1 0 1.9-.2 2.8-.5.9-.4 1.6-.9 2.2-1.5.7-.7 1.2-1.4 1.6-2.3.4-.9.5-1.8.5-2.8 0-1-.2-1.9-.5-2.8-.4-.9-.9-1.6-1.6-2.2zM241.6 309.7c-1.6-1.3-3.5-2.2-5.6-2.9-2.1-.7-4.3-1-6.7-1-5.4 0-9.9 1.4-13.3 4.3-3.5 2.8-5.5 7-6 12.5l11.9.8c.2-1.9.9-3.5 2.1-4.9 1.3-1.3 3.2-2 5.6-2 1.6 0 2.9.5 4 1.5 1.1.9 1.6 2.2 1.6 4 0 .9-.3 1.7-.8 2.6-.5.8-1.1 1.6-2 2.6-.9.9-1.9 1.8-3.2 2.9-1.2 1-2.5 2.2-4 3.6-1 .9-1.7 1.9-2.1 3-.4 1.1-.6 2.4-.6 4v3.4h11.6v-2.2c0-.9.2-1.8.6-2.6.4-.9 1.2-1.8 2.4-2.7 1.9-1.4 3.4-2.8 4.6-4 1.2-1.2 2.2-2.5 2.9-3.6.8-1.2 1.3-2.4 1.6-3.6.3-1.2.5-2.6.5-4.1 0-2.5-.5-4.7-1.4-6.6-.8-2.1-2.1-3.7-3.7-5z"/>
  <path class="st2" d="M227.4 470.5c29 0 54.9-13.5 71.7-34.5H155.6c16.9 21 42.8 34.5 71.8 34.5zM195.4 398.6l-25.2 36.7h114.4l-25.2-36.7z"/>
  <path class="st2" d="M227.4 286.6c-41.8 0-77.1 27.9-88.3 66.2l-.7 49.1c3.2 12.3 9 23.7 16.6 33.4h9.8l17.2-36.7h-11.5c-1.7 0-3.1-1.4-3.1-3.1v-1.2c0-1.7 1.4-3.1 3.1-3.1h113.7c1.7 0 3.1 1.4 3.1 3.1v1.2c0 1.7-1.4 3.1-3.1 3.1h-11.4l17.2 36.7h9.8c12.3-15.6 19.6-35.3 19.6-56.7-.1-50.8-41.2-92-92-92zm7.6 71.6c-.4.9-.9 1.7-1.6 2.3-.6.6-1.4 1.1-2.2 1.5-.9.4-1.8.5-2.8.5-1 0-1.9-.2-2.8-.5-.9-.4-1.7-.9-2.3-1.5-.6-.7-1.1-1.4-1.5-2.3-.4-.9-.5-1.8-.5-2.8 0-1 .2-1.9.5-2.8.4-.9.9-1.6 1.5-2.2.7-.7 1.4-1.2 2.3-1.5s1.8-.5 2.8-.5c1 0 1.9.2 2.8.5s1.6.9 2.2 1.5c.7.6 1.2 1.4 1.6 2.2.4.9.5 1.8.5 2.8 0 1-.2 1.9-.5 2.8zm11.4-33c-.3 1.2-.9 2.4-1.6 3.6-.7 1.2-1.7 2.4-2.9 3.6-1.2 1.2-2.7 2.5-4.6 4-1.2.9-2 1.8-2.4 2.7-.4.9-.6 1.8-.6 2.6v2.2h-11.6v-3.4c0-1.6.2-2.9.6-4 .4-1.1 1.1-2.1 2.1-3 1.4-1.4 2.8-2.6 4-3.6 1.2-1 2.3-2 3.2-2.9.9-.9 1.6-1.8 2-2.6.5-.8.8-1.7.8-2.6 0-1.7-.5-3-1.6-4-1-1-2.4-1.5-4-1.5-2.4 0-4.3.7-5.6 2-1.2 1.3-1.9 3-2.1 4.9l-11.9-.8c.6-5.5 2.6-9.6 6-12.5 3.5-2.9 7.9-4.3 13.3-4.3 2.4 0 4.6.3 6.7 1 2.1.6 4 1.6 5.6 2.9 1.6 1.3 2.9 2.9 3.8 4.8.9 1.9 1.4 4.1 1.4 6.6-.2 1.7-.3 3-.6 4.3zM97 281c-.6 1.3-1.3 2.9-1.3 4.2v.4c.1 1.4.5 3.5.7 5.2 0 .1 0 .3.1.4l1.9-3.7v-5.2c-.1-.2-.3-1.2-.7-2.7-.2.3-.4.8-.7 1.4zM130 221.8c-1.3-.3-2.6-.7-3.8-1.2-1.8-.7-3.4-1.6-4.4-2.6-.7-.7-1.2-1.4-1.2-2.3v-.1c.1-1.4.6-2.5 1.2-3.4l.1-.1h.1c2.1-.7 4-1.9 5.4-3.6 1.4-1.6 2.4-3.6 2.6-6.1 0-.1.1-.2.1-.3l.2-.2c.1-.1.2-.1.4-.1s.5 0 .6-.1h.1c0-.1 0-.2-.1-.3-.1-.2-.2-.5-.3-.8-.2-.6-.5-1.3-.7-1.9-.1-.4-.2-.7-.3-.9-.4-2.6-1.6-5-3.3-6.9-.8 1.1-3.6 3.2-3.9 3.6-1.2 1.6-2.6 3.9-3.5 4.7-.8.8-.5-.3-1.1-1-.8-.9-2.6-1.3-4.2 1.4-1.4 2.3.5 5.6 2.8 4.8.5-.2.6-.2 1-.1.8.3.2 3.9-1.8 5-3.4 1.9-3.2 5.1-3.2 6.7v.3l-.2 9.6c1.1.2 2.2.3 3.3.3 2.2 0 4.4-.4 6.4-1.3l7.5-3.2c0 .1.1.1.2.1zM130.8 434.3h12.1l-9.1-6.2zM133.2 417.3h-5.7v16.5c0 .3.3.6.6.6h1.7l3.4-6.9v-10.2zM107.6 417.3h-5.7v16.5c0 .3.3.6.6.6h1.7l3.4-6.9v-10.2zM105.1 434.3h12.2l-9.1-6.2zM131.8 286.5c.8 1.5 1 3 1 4.6 0 1.6-.2 3.3-.3 5.1v.1c0 1 .4 1.8 1 2.3.6.5 1.4.8 2.1.8.4 0 .8-.1 1.2-.3.3-.2.6-.5.7-.9.2-.5.3-1.3.3-2.2 0-2.8-.7-6.9-1-8.7-.1-.6-.2-1-.2-1v-.2l3.2-4.9-1.6-5.8c-.9 1.2-2.7 3.7-4.2 5.2-.7.7-1.4 1.4-1.9 2.1-.5.7-.8 1.3-.8 2 0 .5.1 1.1.5 1.8z"/>
  <g>
    <path class="st1" d="M47.9 340.6c-.1-.2-.3-.3-.5-.3-.2.1-.3.3-.3.5l4.2 12.7c.1.2.3.3.5.3.2-.1.3-.3.3-.5l-4.2-12.7zM26.5 365.9l-11-3.2c-.2-.1-.4.1-.5.3s.1.4.3.5l11 3.2c.2.1.4-.1.5-.3 0-.2-.1-.4-.3-.5zM78.1 384.2zM86 353.9l-10.4 8.4c-.2.1-.2.4-.1.6s.4.2.6.1l10.4-8.4c.2-.1.2-.4.1-.6s-.4-.3-.6-.1zM72.7 383.9c-.1-.2-.4-.2-.6-.1s-.2.4-.1.6l5.8 7.1c.1.2.4.2.6.1.2-.1.2-.4.1-.6l-5.8-7.1z"/>
    <path class="st3" d="M53.7 338.3c-1-2.7-2.2-5.3-3.7-6.8-1-1-2.2-1.7-3.6-1.7-.4 0-.8 0-1.3.2-1.8.4-2.9 1.3-3.7 2.5-.7 1.2-1 2.7-1 4.4 0 4.6 2.2 10.4 3.3 13.6.5 1.5 1.2 3.8 2.2 6.2 1 2.4 2.3 4.7 3.9 6.2 1.1 1 2.2 1.6 3.6 1.6.4 0 .9-.1 1.4-.2 1.4-.4 2.3-1.2 2.9-2.3.6-1.1.8-2.5.8-4 0-3.8-1.5-8.6-2.5-12-.6-2.2-1.3-5-2.3-7.7zm-1.8 15.5c-.2.1-.4 0-.5-.3l-4.2-12.7c-.1-.2 0-.4.3-.5.2-.1.4 0 .5.3l4.2 12.7c0 .2-.1.5-.3.5zM95.6 348.1l.3-.2-.3.2c-1.3-1.9-2.9-2.6-4.7-2.6-2.5 0-5.4 1.4-8.1 3.3-2.7 1.8-5.2 4-6.8 5.4-1.4 1.2-3.9 3.1-6.1 5.4-2.1 2.2-3.8 4.8-3.8 7.1 0 1 .3 1.9 1 2.8 1.1 1.4 2.4 2 3.9 2 2.1 0 4.6-1.1 7-2.6 2.4-1.5 4.8-3.3 6.6-4.7 3.2-2.5 8.4-5.9 10.8-9.6.8-1.2 1.2-2.4 1.2-3.6-.2-1.1-.4-2-1-2.9zm-9.1 6.4L76.2 363c-.2.1-.4.1-.6-.1s-.1-.4.1-.6l10.4-8.4c.2-.1.4-.1.6.1s0 .4-.2.5zM78.1 384.2c-.8-1-2.1-2.7-3.6-4.1-1.5-1.4-3.2-2.6-4.7-2.6-.6 0-1.2.2-1.8.6-.9.7-1.3 1.5-1.3 2.6 0 1.4.7 3.1 1.7 4.7s2.3 3.2 3.2 4.5c1.7 2.2 4 5.8 6.5 7.3.8.5 1.6.8 2.4.8.6 0 1.2-.2 1.8-.6 1.3-.9 1.7-1.9 1.8-3.1 0-1.7-1-3.6-2.2-5.5-1.4-1.8-2.9-3.4-3.8-4.6zm.3 7.4c-.2.1-.4.1-.6-.1l-5.8-7.1c-.1-.2-.1-.4.1-.6s.4-.1.6.1l5.8 7.1c.1.2 0 .4-.1.6zM30.6 361.3c-2.9-1.4-6.4-2.2-8.5-2.8-2.1-.6-5.9-1.9-9.4-1.9-1.4 0-2.7.2-3.8.7-1.1.5-2 1.4-2.6 2.7-.3.7-.5 1.4-.5 2 0 1.1.4 2 1.2 2.9.7.9 1.8 1.6 3 2.3 2.4 1.3 5.5 2.3 7.8 3 3.1 1 7.8 3 11.5 2.9 1.2 0 2.4-.2 3.3-.7 1-.5 1.8-1.3 2.3-2.5.5-1 .7-1.9.7-2.8 0-1.3-.5-2.4-1.5-3.4-.8-.9-2.1-1.7-3.5-2.4zm-3.8 5.1c-.1.2-.3.3-.5.3l-11-3.2c-.2-.1-.3-.3-.3-.5s.3-.3.5-.3l11 3.2c.2.1.3.3.3.5z"/>
  </g>
  <g>
    <path class="st4" d="M272.4 397.8h11.8c1.3 0 2.3-1 2.3-2.3v-1.2c0-1.3-1-2.3-2.3-2.3H170.5c-1.3 0-2.3 1-2.3 2.3v1.2c0 1.3 1 2.3 2.3 2.3h101.9zM165.8 435.1h3.5l25.1-36.5h-11.5zM271.9 398.6h-11.5l25.1 36.5h3.5z"/>
  </g>
  <g id="line">
    <path class="st1" d="M99.2 281.8h32.5c.5-.6 1-1.1 1.6-1.7.5-.6 1.2-1.3 1.8-2.1l.6-39.2 8.7 13.9c.5.8.7 1.6.7 2.5 0 .7-.2 1.5-.5 2.1l-7 13.8.7 2.5 1.9 6.8 15.9-22.3c.7-1 1.1-2.3 1.1-3.5 0-1-.2-2-.7-2.9L144 229.1c-1.4-2.5-3.6-4.4-6.3-5.4l-3.1-1.2c-.7-.3-1.5-.4-2.2-.4-.8 0-1.7.2-2.4.5l-7.5 3.2c-2.2.9-4.4 1.4-6.7 1.4-1.1 0-2.2-.1-3.3-.3l-.1 3.8c0 2.1-1.5 3.7-3.4 3.7s-3.4 1.7-3.4 3.7v12.1c0 7.4-4.3 13.7-10.2 16.1.3 1.3.6 2.5.8 3.7.8-.1 1.7-.4 2.5-.9 1.2-.7 2.3-1.7 3-3.1.3-.6 1.1-.8 1.7-.5.6.3.8 1.1.5 1.7-1 1.8-2.4 3.1-3.9 4-1 .6-2.1.9-3.1 1.1.9 3.8 1.7 6.9 2.2 8.5 0 .5.1.8.1 1z"/>
    <path class="st1" d="M115.8 226.3c2.2 0 4.4-.4 6.4-1.3l7.5-3.2c.1 0 .2-.1.3-.1-1.3-.3-2.6-.7-3.8-1.2-1.8-.7-3.4-1.6-4.4-2.6-.7-.7-1.2-1.4-1.2-2.3v-.1c.1-1.4.6-2.5 1.2-3.4l.1-.1h.1c2.1-.7 4-1.9 5.4-3.6 1.4-1.6 2.4-3.6 2.6-6.1 0-.1.1-.2.1-.3l.2-.2c.1-.1.2-.1.4-.1s.5 0 .6-.1h.1c0-.1 0-.2-.1-.3-.1-.2-.2-.5-.3-.8-.2-.6-.5-1.3-.7-1.9-.1-.4-.2-.7-.3-.9-.4-2.6-1.6-5-3.3-6.9-.8 1.1-3.6 3.2-3.9 3.6-1.2 1.6-2.6 3.9-3.5 4.7-.8.8-.5-.3-1.1-1-.8-.9-2.6-1.3-4.2 1.4-1.4 2.3.5 5.6 2.8 4.8.5-.2.6-.2 1-.1.8.3.2 3.9-1.8 5-3.4 1.9-3.2 5.1-3.2 6.7v.3l-.2 9.6c1 .4 2.1.5 3.2.5zM130.7 202.5v-.1.1zM136.8 271.1l7.1-14c.3-.6.4-1.2.4-1.8 0-.7-.2-1.4-.6-2.1l-7.3-11.6-.5 35.4c.6-.8 1.2-1.5 1.5-2 .1-.2.3-.4.3-.5l-.9-3.4zM96.2 347.7c.7 1 1 2.1 1 3.2 0 1.4-.5 2.8-1.4 4-.6.9-1.3 1.7-2.1 2.6l4.1 58.8h12.5l1.6-57.3-6.7-36.9-.8-6.6c-.1-1.2-.2-2.5-.2-3.7 0-5.1 1.2-10.1 3.5-14.6l.7.4c-2.2 4.4-3.4 9.3-3.4 14.2 0 1.2.1 2.4.2 3.6l.8 6.6 16 87.7-.2-1.8 1.5 8.4h13.9l1.5-110.1h.5-.5v-.9c0-2.4-.1-4.7-.4-7 0 .1-.1.2-.1.3-.2.6-.6 1-1.1 1.3-.5.3-1 .4-1.6.4-.9 0-1.9-.4-2.7-1-.8-.7-1.3-1.7-1.3-2.9v-.2c.1-1.9.3-3.6.3-5.1 0-1.2-.1-2.3-.5-3.3h-32l-2 4c-.3.6-.6 1.1-1.1 1.6-3.6 4.2-5.7 11.8-5.7 17.5l.4 9.2c0 3.3.5 6.6.8 9.9l1 15c1.5.4 2.6 1.3 3.5 2.7zM99.3 282.6v4.3h31.8v-.1c-.4-.8-.6-1.5-.6-2.1 0-.8.3-1.5.7-2.1H99.3z"/>
    <path class="st1" d="M70.8 371.3c2.1 0 4.6-1.1 7-2.6 2.4-1.5 4.8-3.3 6.6-4.7 3.2-2.5 8.4-5.9 10.8-9.6.8-1.2 1.2-2.4 1.2-3.6 0-.9-.3-1.8-.9-2.7l.3-.2-.3.2c-1.3-1.9-2.9-2.6-4.7-2.6-2.5 0-5.4 1.4-8.1 3.3-2.7 1.8-5.2 4-6.8 5.4-1.4 1.2-3.9 3.1-6.1 5.4-2.1 2.2-3.8 4.8-3.8 7.1 0 1 .3 1.9 1 2.8 1 1.3 2.3 1.8 3.8 1.8zM38.1 401.4h34.3V435H38.1zM96.6 291.2l1.9-3.7v-5.2c-.1-.2-.3-1.2-.7-2.7-.2.4-.5.9-.8 1.4-.6 1.3-1.3 2.9-1.3 4.2v.4c.1 1.4.5 3.5.7 5.2.1.1.1.2.2.4zM288.8 231.1h8.7V260h-8.7zM331 236c0-3.5-2.8-6.3-6.3-6.3h-.4v-14.5c0-.5-.4-1-1-1h-4.9c-.5 0-1 .4-1 1v14.5h-.4c-1.7 0-3.3.7-4.4 1.8-1.1 1.1-1.8 2.7-1.8 4.4v24H331V236zM133.9 280.7c-.7.7-1.4 1.4-1.9 2.1-.5.7-.8 1.3-.8 2 0 .5.1 1.1.5 1.7.8 1.5 1 3 1 4.6 0 1.6-.2 3.3-.3 5.1v.1c0 1 .4 1.8 1 2.3.6.5 1.4.8 2.1.8.4 0 .8-.1 1.2-.3.3-.2.6-.5.7-.9.2-.5.3-1.3.3-2.2 0-2.8-.7-6.9-1-8.7-.1-.6-.2-1-.2-1v-.2l3.2-4.9-1.6-5.8c-.9 1.3-2.8 3.8-4.2 5.3zM279.2 217.8h8.7V260h-8.7zM34.3 363.8c-.9-1-2.2-1.8-3.7-2.5-2.9-1.4-6.4-2.2-8.5-2.8-2.1-.6-5.9-1.9-9.4-1.9-1.4 0-2.7.2-3.8.7-1.1.5-2 1.4-2.6 2.7-.3.7-.5 1.4-.5 2 0 1.1.4 2 1.2 2.9.7.9 1.8 1.6 3 2.3 2.4 1.3 5.5 2.3 7.8 3 3.1 1 7.8 3 11.5 2.9 1.2 0 2.4-.2 3.3-.7 1-.5 1.8-1.3 2.3-2.5.5-1 .7-1.9.7-2.8.1-1.2-.4-2.3-1.3-3.3zM269.7 225.1h8.7V260h-8.7zM57.8 362c.6-1.1.8-2.5.8-4 0-3.8-1.5-8.6-2.5-12-.7-2.1-1.4-5-2.3-7.7-1-2.7-2.2-5.3-3.7-6.8-1-1-2.2-1.7-3.6-1.7-.4 0-.8 0-1.3.2-1.8.4-2.9 1.3-3.7 2.5-.7 1.2-1 2.7-1 4.4 0 4.6 2.2 10.4 3.3 13.6.5 1.5 1.2 3.8 2.2 6.2 1 2.4 2.3 4.7 3.9 6.2 1.1 1 2.2 1.6 3.6 1.6.4 0 .9-.1 1.4-.2 1.4-.5 2.3-1.3 2.9-2.3zM182.9 398.6l-17.1 36.5h3.5l25.1-36.5zM130.8 434.3h12.1l-9.1-6.2zM195.9 397.8H284.3c1.3 0 2.3-1 2.3-2.3v-1.2c0-1.3-1-2.3-2.3-2.3H170.5c-1.3 0-2.3 1-2.3 2.3v1.2c0 1.3 1 2.3 2.3 2.3h25.4zM133.2 417.3h-5.7v16.5c0 .3.3.6.6.6h1.7l3.4-6.9v-10.2zM126.7 429.4v-12.1h-4.2l-9.7-53.2-1.5 53.2h-2.9v10.1l10 6.8c.2.1.3.3.3.5v.1h.5v.6h7.9v-.6h.2c-.3-.3-.4-.6-.4-1v-4.4zM195.4 398.6l-25.2 36.7h114.4l-25.2-36.7zM260.4 398.6l25.1 36.5h3.5l-17.1-36.5zM107.6 417.3h-5.7v16.5c0 .3.3.6.6.6h1.7l3.4-6.9v-10.2zM71.5 389.9c1.7 2.2 4 5.8 6.5 7.3.8.5 1.6.8 2.4.8.6 0 1.2-.2 1.8-.6 1.3-.9 1.7-1.9 1.8-3.1 0-1.7-1-3.6-2.2-5.5-1.2-1.8-2.7-3.5-3.7-4.7-.8-1-2.1-2.7-3.6-4.1-1.5-1.4-3.2-2.6-4.7-2.6-.6 0-1.2.2-1.8.6-.9.7-1.3 1.5-1.3 2.6 0 1.4.7 3.1 1.7 4.7.9 1.8 2.1 3.4 3.1 4.6z"/>
    <path class="st1" d="M67.6 385.8c-1-1.7-1.8-3.5-1.9-5.1 0-1 .4-2 1.2-2.8l-3.4-4.9-1.7 1.4c-1.4 1.2-2.6 2.7-3.4 4.4-.8 1.7-1.2 3.6-1.2 5.5v8.4h15.5c-.7-.9-1.3-1.7-1.8-2.4-1-1.1-2.3-2.8-3.3-4.5zM38.1 393.4h34.3v2.2H38.1zM105.1 434.3h12.2l-9.1-6.2zM38.1 398.7h34.3v2.1H38.1z"/>
    <path class="st1" d="M101.1 429.4v-12.1H97l-4.1-58.9-.2.2c-2.5 2.3-5.6 4.4-7.7 6.1-1.8 1.4-4.2 3.3-6.7 4.8s-5.1 2.7-7.4 2.7c-1.5 0-3-.5-4.1-1.8l-2.6 2.1 3.4 4.9c.7-.5 1.4-.7 2.1-.7 1.9 0 3.7 1.3 5.3 2.8 1.6 1.5 2.9 3.2 3.7 4.2.9 1.1 2.4 2.8 3.7 4.7 1.3 1.9 2.3 4 2.3 5.9 0 1.4-.6 2.8-2.1 3.8l-.2-.3.2.3c-.7.5-1.5.7-2.3.7-1 0-1.9-.4-2.8-1-.9-.6-1.7-1.4-2.6-2.2-.7-.8-1.4-1.6-2-2.4v42h28.3v-.6h.2c-.3-.3-.4-.6-.4-1v-4.2z"/>
    <path class="st1" d="M38.1 396.1h34.3v2.1H38.1z"/>
    <path d="M224 318.5c1.3-1.3 3.2-2 5.6-2 1.6 0 2.9.5 4 1.5 1.1.9 1.6 2.2 1.6 4 0 .9-.3 1.7-.8 2.6-.5.8-1.1 1.6-2 2.6-.9.9-1.9 1.8-3.2 2.9-1.2 1-2.5 2.2-4 3.6-1 .9-1.7 1.9-2.1 3-.4 1.1-.6 2.4-.6 4v3.4h11.6v-2.2c0-.9.2-1.8.6-2.6.4-.9 1.2-1.8 2.4-2.7 1.9-1.4 3.4-2.8 4.6-4 1.2-1.2 2.2-2.5 2.9-3.6.8-1.2 1.3-2.4 1.6-3.6.3-1.2.5-2.6.5-4.1 0-2.5-.5-4.7-1.4-6.6-.9-1.9-2.2-3.5-3.8-4.8-1.6-1.3-3.5-2.2-5.6-2.9-2.1-.7-4.3-1-6.7-1-5.4 0-9.9 1.4-13.3 4.3-3.5 2.8-5.5 7-6 12.5l11.9.8c.3-2.1 1-3.8 2.2-5.1zM231.2 348.8c-.9-.4-1.8-.5-2.8-.5-1 0-1.9.2-2.8.5s-1.7.9-2.3 1.5c-.6.6-1.1 1.4-1.5 2.2-.4.9-.5 1.8-.5 2.8 0 1 .2 1.9.5 2.8.4.9.9 1.7 1.5 2.3.7.6 1.4 1.1 2.3 1.5.9.4 1.8.5 2.8.5 1 0 1.9-.2 2.8-.5.9-.4 1.6-.9 2.2-1.5.7-.7 1.2-1.4 1.6-2.3.4-.9.5-1.8.5-2.8 0-1-.2-1.9-.5-2.8-.4-.9-.9-1.6-1.6-2.2-.6-.6-1.3-1.1-2.2-1.5z"/>
    <path class="st1" d="M96.2 347.7c.7 1 1 2.1 1 3.2 0 1.4-.5 2.8-1.4 4-.6.9-1.3 1.7-2.1 2.6l4.1 58.8h12.5l1.6-57.3-6.7-36.9-.8-6.6c-.1-1.2-.2-2.5-.2-3.7 0-5.1 1.2-10.1 3.5-14.6l.7.4c-2.2 4.4-3.4 9.3-3.4 14.2 0 1.2.1 2.4.2 3.6l.8 6.6 16 87.7-.2-1.8 1.5 8.4h13.9l1.5-110.1h.5-.5v-.9c0-2.4-.1-4.7-.4-7 0 .1-.1.2-.1.3-.2.6-.6 1-1.1 1.3-.5.3-1 .4-1.6.4-.9 0-1.9-.4-2.7-1-.8-.7-1.3-1.7-1.3-2.9v-.2c.1-1.9.3-3.6.3-5.1 0-1.2-.1-2.3-.5-3.3h-32l-2 4c-.3.6-.6 1.1-1.1 1.6-3.6 4.2-5.7 11.8-5.7 17.5l.4 9.2c0 3.3.5 6.6.8 9.9l1 15c1.5.4 2.6 1.3 3.5 2.7zM99.3 282.6v4.3h31.8v-.1c-.4-.8-.6-1.5-.6-2.1 0-.8.3-1.5.7-2.1H99.3z"/>
    <path class="st1" d="M70.8 371.3c2.1 0 4.6-1.1 7-2.6 2.4-1.5 4.8-3.3 6.6-4.7 3.2-2.5 8.4-5.9 10.8-9.6.8-1.2 1.2-2.4 1.2-3.6 0-.9-.3-1.8-.9-2.7l.3-.2-.3.2c-1.3-1.9-2.9-2.6-4.7-2.6-2.5 0-5.4 1.4-8.1 3.3-2.7 1.8-5.2 4-6.8 5.4-1.4 1.2-3.9 3.1-6.1 5.4-2.1 2.2-3.8 4.8-3.8 7.1 0 1 .3 1.9 1 2.8 1 1.3 2.3 1.8 3.8 1.8zm4.8-9l10.4-8.4c.2-.1.4-.1.6.1s.1.4-.1.6L76.2 363c-.2.1-.4.1-.6-.1s-.1-.4 0-.6zM96.6 291.2l1.9-3.7v-5.2c-.1-.2-.3-1.2-.7-2.7-.2.4-.5.9-.8 1.4-.6 1.3-1.3 2.9-1.3 4.2v.4c.1 1.4.5 3.5.7 5.2.1.1.1.2.2.4zM38.1 401.4h34.3V435H38.1zM38.1 396.1h34.3v2.1H38.1zM38.1 393.4h34.3v2.2H38.1zM38.1 398.7h34.3v2.1H38.1zM34.3 363.8c-.9-1-2.2-1.8-3.7-2.5-2.9-1.4-6.4-2.2-8.5-2.8-2.1-.6-5.9-1.9-9.4-1.9-1.4 0-2.7.2-3.8.7-1.1.5-2 1.4-2.6 2.7-.3.7-.5 1.4-.5 2 0 1.1.4 2 1.2 2.9.7.9 1.8 1.6 3 2.3 2.4 1.3 5.5 2.3 7.8 3 3.1 1 7.8 3 11.5 2.9 1.2 0 2.4-.2 3.3-.7 1-.5 1.8-1.3 2.3-2.5.5-1 .7-1.9.7-2.8.1-1.2-.4-2.3-1.3-3.3zm-7.5 2.6c-.1.2-.3.3-.5.3l-11-3.2c-.2-.1-.3-.3-.3-.5s.3-.3.5-.3l11 3.2c.2.1.3.3.3.5zM57.8 362c.6-1.1.8-2.5.8-4 0-3.8-1.5-8.6-2.5-12-.7-2.1-1.4-5-2.3-7.7-1-2.7-2.2-5.3-3.7-6.8-1-1-2.2-1.7-3.6-1.7-.4 0-.8 0-1.3.2-1.8.4-2.9 1.3-3.7 2.5-.7 1.2-1 2.7-1 4.4 0 4.6 2.2 10.4 3.3 13.6.5 1.5 1.2 3.8 2.2 6.2 1 2.4 2.3 4.7 3.9 6.2 1.1 1 2.2 1.6 3.6 1.6.4 0 .9-.1 1.4-.2 1.4-.5 2.3-1.3 2.9-2.3zm-5.9-8.2c-.2.1-.4 0-.5-.3l-4.2-12.7c-.1-.2 0-.4.3-.5.2-.1.4 0 .5.3l4.2 12.7c0 .2-.1.5-.3.5zM133.9 280.7c-.7.7-1.4 1.4-1.9 2.1-.5.7-.8 1.3-.8 2 0 .5.1 1.1.5 1.7.8 1.5 1 3 1 4.6 0 1.6-.2 3.3-.3 5.1v.1c0 1 .4 1.8 1 2.3.6.5 1.4.8 2.1.8.4 0 .8-.1 1.2-.3.3-.2.6-.5.7-.9.2-.5.3-1.3.3-2.2 0-2.8-.7-6.9-1-8.7-.1-.6-.2-1-.2-1v-.2l3.2-4.9-1.6-5.8c-.9 1.3-2.8 3.8-4.2 5.3zM130.7 202.5v-.1.1z"/>
    <path class="st1" d="M99.2 281.8h32.5c.5-.6 1-1.1 1.6-1.7.5-.6 1.2-1.3 1.8-2.1l.6-39.2 8.7 13.9c.5.8.7 1.6.7 2.5 0 .7-.2 1.5-.5 2.1l-7 13.8.7 2.5 1.9 6.8 15.9-22.3c.7-1 1.1-2.3 1.1-3.5 0-1-.2-2-.7-2.9L144 229.1c-1.4-2.5-3.6-4.4-6.3-5.4l-3.1-1.2c-.7-.3-1.5-.4-2.2-.4-.8 0-1.7.2-2.4.5l-7.5 3.2c-2.2.9-4.4 1.4-6.7 1.4-1.1 0-2.2-.1-3.3-.3l-.1 3.8c0 2.1-1.5 3.7-3.4 3.7s-3.4 1.7-3.4 3.7v12.1c0 7.4-4.3 13.7-10.2 16.1.3 1.3.6 2.5.8 3.7.8-.1 1.7-.4 2.5-.9 1.2-.7 2.3-1.7 3-3.1.3-.6 1.1-.8 1.7-.5.6.3.8 1.1.5 1.7-1 1.8-2.4 3.1-3.9 4-1 .6-2.1.9-3.1 1.1.9 3.8 1.7 6.9 2.2 8.5 0 .5.1.8.1 1z"/>
    <path class="st1" d="M136.8 271.1l7.1-14c.3-.6.4-1.2.4-1.8 0-.7-.2-1.4-.6-2.1l-7.3-11.6-.5 35.4c.6-.8 1.2-1.5 1.5-2 .1-.2.3-.4.3-.5l-.9-3.4zM115.8 226.3c2.2 0 4.4-.4 6.4-1.3l7.5-3.2c.1 0 .2-.1.3-.1-1.3-.3-2.6-.7-3.8-1.2-1.8-.7-3.4-1.6-4.4-2.6-.7-.7-1.2-1.4-1.2-2.3v-.1c.1-1.4.6-2.5 1.2-3.4l.1-.1h.1c2.1-.7 4-1.9 5.4-3.6 1.4-1.6 2.4-3.6 2.6-6.1 0-.1.1-.2.1-.3l.2-.2c.1-.1.2-.1.4-.1s.5 0 .6-.1h.1c0-.1 0-.2-.1-.3-.1-.2-.2-.5-.3-.8-.2-.6-.5-1.3-.7-1.9-.1-.4-.2-.7-.3-.9-.4-2.6-1.6-5-3.3-6.9-.8 1.1-3.6 3.2-3.9 3.6-1.2 1.6-2.6 3.9-3.5 4.7-.8.8-.5-.3-1.1-1-.8-.9-2.6-1.3-4.2 1.4-1.4 2.3.5 5.6 2.8 4.8.5-.2.6-.2 1-.1.8.3.2 3.9-1.8 5-3.4 1.9-3.2 5.1-3.2 6.7v.3l-.2 9.6c1 .4 2.1.5 3.2.5zM195.9 397.8H284.3c1.3 0 2.3-1 2.3-2.3v-1.2c0-1.3-1-2.3-2.3-2.3H170.5c-1.3 0-2.3 1-2.3 2.3v1.2c0 1.3 1 2.3 2.3 2.3h25.4zM67.6 385.8c-1-1.7-1.8-3.5-1.9-5.1 0-1 .4-2 1.2-2.8l-3.4-4.9-1.7 1.4c-1.4 1.2-2.6 2.7-3.4 4.4-.8 1.7-1.2 3.6-1.2 5.5v8.4h15.5c-.7-.9-1.3-1.7-1.8-2.4-1-1.1-2.3-2.8-3.3-4.5zM130.8 434.3h12.1l-9.1-6.2zM133.2 417.3h-5.7v16.5c0 .3.3.6.6.6h1.7l3.4-6.9v-10.2zM195.4 398.6l-25.2 36.7h114.4l-25.2-36.7zM260.4 398.6l25.1 36.5h3.5l-17.1-36.5zM182.9 398.6l-17.1 36.5h3.5l25.1-36.5zM107.6 417.3h-5.7v16.5c0 .3.3.6.6.6h1.7l3.4-6.9v-10.2z"/>
    <path class="st1" d="M101.1 429.4v-12.1H97l-4.1-58.9-.2.2c-2.5 2.3-5.6 4.4-7.7 6.1-1.8 1.4-4.2 3.3-6.7 4.8s-5.1 2.7-7.4 2.7c-1.5 0-3-.5-4.1-1.8l-2.6 2.1 3.4 4.9c.7-.5 1.4-.7 2.1-.7 1.9 0 3.7 1.3 5.3 2.8 1.6 1.5 2.9 3.2 3.7 4.2.9 1.1 2.4 2.8 3.7 4.7 1.3 1.9 2.3 4 2.3 5.9 0 1.4-.6 2.8-2.1 3.8l-.2-.3.2.3c-.7.5-1.5.7-2.3.7-1 0-1.9-.4-2.8-1-.9-.6-1.7-1.4-2.6-2.2-.7-.8-1.4-1.6-2-2.4v42h28.3v-.6h.2c-.3-.3-.4-.6-.4-1v-4.2z"/>
    <path class="st1" d="M71.5 389.9c1.7 2.2 4 5.8 6.5 7.3.8.5 1.6.8 2.4.8.6 0 1.2-.2 1.8-.6 1.3-.9 1.7-1.9 1.8-3.1 0-1.7-1-3.6-2.2-5.5-1.2-1.8-2.7-3.5-3.7-4.7-.8-1-2.1-2.7-3.6-4.1-1.5-1.4-3.2-2.6-4.7-2.6-.6 0-1.2.2-1.8.6-.9.7-1.3 1.5-1.3 2.6 0 1.4.7 3.1 1.7 4.7.9 1.8 2.1 3.4 3.1 4.6zm.6-6c.2-.1.4-.1.6.1l5.8 7.1c.1.2.1.4-.1.6-.2.1-.4.1-.6-.1l-5.8-7.1c-.1-.2-.1-.5.1-.6zM126.7 429.4v-12.1h-4.2l-9.7-53.2-1.5 53.2h-2.9v10.1l10 6.8c.2.1.3.3.3.5v.1h.5v.6h7.9v-.6h.2c-.3-.3-.4-.6-.4-1v-4.4zM105.1 434.3h12.2l-9.1-6.2z"/>
    <path d="M47.9 340.6c-.1-.2-.3-.3-.5-.3-.2.1-.3.3-.3.5l4.2 12.7c.1.2.3.3.5.3.2-.1.3-.3.3-.5l-4.2-12.7zM76.2 363l10.4-8.4c.2-.1.2-.4.1-.6s-.4-.2-.6-.1l-10.4 8.4c-.2.1-.2.4-.1.6s.4.2.6.1zM77.8 391.5c.1.2.4.2.6.1.2-.1.2-.4.1-.6l-5.8-7.1c-.1-.2-.4-.2-.6-.1s-.2.4-.1.6l5.8 7.1zM26.5 365.9l-11-3.2c-.2-.1-.4.1-.5.3s.1.4.3.5l11 3.2c.2.1.4-.1.5-.3 0-.2-.1-.4-.3-.5zM78.2 252.8h1.3c.5 0 .9-.4.9-.9v-.4c0-.5-.4-.9-.9-.9h-1.3c-.5 0-.9.4-.9.9v.4c.1.5.5.9.9.9z"/>
    <circle cx="103.2" cy="189.4" r="1.5"/>
    <path d="M70.5 271.3h6c.5 0 .9-.4.9-.9v-.4c0-.5-.4-.9-.9-.9h-6c-.5 0-.9.4-.9.9v.4c0 .5.4.9.9.9z"/>
    <path d="M360 435.3h-70l-17.2-36.7h11.4c1.7 0 3.1-1.4 3.1-3.1v-1.2c0-1.7-1.4-3.1-3.1-3.1H170.5c-1.7 0-3.1 1.4-3.1 3.1v1.2c0 1.7 1.4 3.1 3.1 3.1H182l-17.2 36.7h-20.1v-.6h-.5v-.1c0-.2-.1-.4-.3-.5l-10-6.8v-10.1h4.2l.2-15.4.7-49.1.6-46.7v-.9c0-6-.9-11.7-1.9-17.7v-.2l-.1-.1s-.1 0-.1-.1c-.1-.4-.1-.7-.2-.9l3-4.7 16.5-23.1c.8-1.2 1.3-2.6 1.3-4 0-1.1-.3-2.3-.8-3.3l-12.5-22.6c-1.5-2.7-3.8-4.7-6.7-5.8l-3.1-1.2c-.8-.3-1.7-.5-2.5-.5h-.7c-2.2-.5-4.9-1.3-6.9-2.3-1-.5-1.9-1.1-2.5-1.7-.6-.6-.9-1.2-.9-1.7v-.1c0-1.1.5-2.1 1-2.9 2.1-.8 4.1-2 5.6-3.7 1.5-1.7 2.5-3.8 2.8-6.4h.1c.2 0 .4 0 .6-.1.1 0 .2 0 .4-.1l.2-.2c.1-.1.1-.2.1-.3 0-.3-.1-.6-.2-1-.2-.6-.4-1.3-.7-1.9-.2-.6-.4-1.2-.4-1.3-1-6.7-6.8-12.1-13.9-12.1-.7 0-1.4.1-2.1.2.2-.5.3-.9.3-1.5 0-2.8-2.2-5.1-5.2-5.1s-5.8 2.6-5.8 5.4c0 2.2 1.5 3.9 3.6 4.5-2.9 2.6-4.8 6.3-4.8 10.5 0 1 .1 1.9.3 2.8l.1 12.1c0 2.1-1.5 3.7-3.4 3.7h-5.7c-6.2 0-11.3 5.5-11.3 12.3v20.8c0 2.1-1.5 3.7-3.4 3.7-2.9 0-5.2 2.5-5.2 5.7v.8c0 3.1 2.3 5.7 5.2 5.7H90c1.7 0 3.3-.3 4.8-.8.3 1.2.5 2.4.8 3.5h-.3c-.7 0-1.2.5-1.2 1.2s.5 1.2 1.2 1.2c.3 0 .6 0 .9-.1.6 2.3 1.1 4.4 1.5 6-.2.3-.7 1.1-1.2 2.2-.7 1.3-1.3 3-1.3 4.5v.5c.2 1.8.7 4.8 1 6.7-.1.2-.2.3-.3.5-3.8 4.6-5.9 12.2-5.9 18.1l.4 9.2c0 3.4.5 6.7.8 10l1 14.7c-.4-.1-.7-.1-1.1-.1-2.8 0-5.8 1.6-8.6 3.4-2.8 1.9-5.2 4.1-6.9 5.4-1.4 1.2-3.9 3.1-6.1 5.4-2.2 2.3-4 4.9-4.1 7.6 0 1.1.3 2.2 1 3.2l-4.9 4.1c-1.5 1.3-2.8 2.9-3.6 4.7-.9 1.8-1.3 3.9-1.3 5.9v3.7l-.7-5.6c-.3-2.3-.5-4.5-.5-6.8v-10c1.6-.5 2.7-1.4 3.3-2.6.7-1.2.9-2.8.9-4.4 0-4-1.5-8.9-2.6-12.2-.9-2.8-1.8-7-3.4-10.4-.8-1.7-1.7-3.3-2.9-4.4-1.1-1.2-2.5-1.9-4.2-1.9-.5 0-1 .1-1.5.2-2 .5-3.3 1.5-4.2 2.9-.8 1.4-1.1 3-1.1 4.8 0 4.9 2.3 10.7 3.4 13.9.7 1.9 1.7 5.5 3.4 8.6.8 1.6 1.8 3 3 4.1 1.2 1.1 2.5 1.8 4.1 1.8.3 0 .6 0 .9-.1v10.5c0 2.3.2 4.6.5 6.9l.9 8.1-3-9.7c-.6-1.6-1.9-3-3.4-3.7l-14-6.4c.1-.2.2-.4.4-.6l-.4-.2.4.2c.5-1.1.8-2.2.8-3.1 0-1.6-.7-2.9-1.7-4-1.5-1.6-3.9-2.8-6.2-3.7-2.4-.9-4.7-1.5-6.3-1.9-2-.6-6-1.9-9.6-1.9-1.5 0-2.9.2-4.2.8-1.3.6-2.3 1.6-3 3.1-.5.8-.7 1.6-.7 2.3 0 1.3.5 2.5 1.4 3.4 1.3 1.5 3.2 2.6 5.2 3.5 2 .9 4.2 1.6 5.9 2.1 3.1 1 7.8 3 11.8 3 1.3 0 2.6-.2 3.7-.8.7-.4 1.3-.9 1.9-1.6L49 378c1.4.6 2.5 1.8 3 3.2l3.5 11.5h-18v42.5H0h.2v.7H0h360-.1v-.7h.1zM53.5 364.4c-1.3 0-2.5-.6-3.6-1.6-1.6-1.5-2.9-3.8-3.9-6.2-1-2.4-1.7-4.7-2.2-6.2-1.1-3.2-3.3-9-3.3-13.6 0-1.7.3-3.2 1-4.4.7-1.2 1.9-2.1 3.7-2.5.4-.1.9-.2 1.3-.2 1.4 0 2.6.6 3.6 1.7 1.6 1.6 2.8 4.1 3.7 6.8 1 2.7 1.7 5.5 2.3 7.7 1 3.4 2.5 8.2 2.5 12 0 1.5-.2 2.9-.8 4-.6 1.1-1.5 1.9-2.9 2.3-.5.2-1 .2-1.4.2zm-20.8 8.1c-1 .5-2.1.7-3.3.7-3.8 0-8.4-1.9-11.5-2.9-2.3-.7-5.3-1.7-7.8-3-1.2-.7-2.3-1.4-3-2.3-.7-.9-1.2-1.8-1.2-2.9 0-.6.1-1.3.5-2 .6-1.3 1.5-2.2 2.6-2.7s2.4-.7 3.8-.7c3.5 0 7.3 1.3 9.4 1.9 2.1.6 5.6 1.5 8.5 2.8 1.4.7 2.8 1.5 3.7 2.5.9 1 1.5 2.1 1.5 3.4 0 .8-.2 1.7-.7 2.8-.8 1.1-1.6 1.9-2.5 2.4zm103.8-86.4v.2s.1.4.2 1c.3 1.9 1 5.9 1 8.7 0 1-.1 1.8-.3 2.2-.2.4-.4.7-.7.9-.3.2-.7.3-1.2.3-.7 0-1.5-.3-2.1-.8-.6-.5-1-1.3-1-2.3v-.1c.1-1.8.3-3.5.3-5.1 0-1.6-.2-3.1-1-4.6-.4-.7-.5-1.2-.5-1.7 0-.7.3-1.3.8-2s1.2-1.3 1.9-2.1c1.4-1.5 3.3-4 4.2-5.2l1.6 5.8-3.2 4.8zm-.6-9.1l.5-35.4 7.3 11.6c.4.6.6 1.3.6 2.1 0 .6-.1 1.2-.4 1.8l-7.1 14 1 3.4c-.1.1-.2.3-.3.5-.4.5-1 1.2-1.6 2zm-5.2-74.5s0-.1 0 0zM112.8 216c0-1.6-.2-4.8 3.2-6.7 1.9-1.1 2.6-4.7 1.8-5-.4-.1-.5-.1-1 .1-2.3.8-4.2-2.4-2.8-4.8 1.6-2.7 3.5-2.3 4.2-1.4.6.7.3 1.7 1.1 1 .9-.9 2.3-3.1 3.5-4.7.3-.4 3-2.5 3.9-3.6 1.7 1.9 2.9 4.3 3.3 6.9 0 .2.1.5.3.9.2.6.5 1.2.7 1.9.1.3.2.6.3.8 0 .1.1.2.1.3h-.1c-.2 0-.4 0-.6.1-.1 0-.2 0-.4.1l-.2.2c-.1.1-.1.2-.1.3-.2 2.4-1.1 4.5-2.6 6.1-1.4 1.6-3.3 2.8-5.4 3.6h-.1l-.1.1c-.6.9-1.1 2-1.2 3.4v.1c0 .9.5 1.6 1.2 2.3 1 1 2.6 1.9 4.4 2.6 1.2.5 2.6.9 3.8 1.2-.1 0-.2.1-.3.1l-7.5 3.2c-2 .9-4.2 1.3-6.4 1.3-1.1 0-2.2-.1-3.3-.3l.2-9.6c.1-.2.1-.3.1-.5zm-16 56.3c1-.2 2.1-.6 3.1-1.1 1.5-.9 3-2.2 3.9-4 .3-.6.1-1.3-.5-1.7-.6-.3-1.3-.1-1.7.5-.7 1.4-1.8 2.4-3 3.1-.8.5-1.6.7-2.5.9-.3-1.2-.6-2.4-.8-3.7 6-2.4 10.2-8.7 10.2-16.1v-12.1c0-2.1 1.5-3.7 3.4-3.7s3.4-1.7 3.4-3.7l.1-3.8c1.1.2 2.2.3 3.3.3 2.3 0 4.6-.5 6.7-1.4l7.5-3.2c.8-.3 1.6-.5 2.4-.5.7 0 1.5.1 2.2.4l3.1 1.2c2.7 1 4.9 2.9 6.3 5.4l12.5 22.6c.5.9.7 1.9.7 2.9 0 1.2-.4 2.4-1.1 3.5l-15.9 22.3-1.9-6.8-.7-2.5 7-13.8c.3-.7.5-1.4.5-2.1 0-.9-.2-1.7-.7-2.5l-8.7-13.9-.6 39.2c-.6.8-1.2 1.5-1.8 2.1-.5.6-1.1 1.1-1.6 1.7H99.2c-.1-.2-.1-.5-.3-1-.4-1.6-1.2-4.7-2.1-8.5zm34.2 14.6c.1 0 .1 0 0 0l-31.7.1v-4.3h31.8c-.4.6-.7 1.3-.7 2.1 0 .6.2 1.3.6 2.1zm-35.2-1.4v-.4c0-1.3.6-2.9 1.3-4.2.3-.6.5-1 .8-1.4.4 1.6.7 2.6.7 2.7v5.2l-1.9 3.7c0-.1 0-.3-.1-.4-.4-1.7-.7-3.8-.8-5.2zM91.9 330c-.3-3.3-.8-6.6-.8-9.9l-.4-9.2c0-5.7 2.1-13.2 5.7-17.5.4-.5.8-1 1.1-1.6l2-4h32c.4 1 .5 2.1.5 3.3 0 1.5-.2 3.2-.3 5.1v.2c0 1.2.5 2.2 1.3 2.9.8.7 1.7 1 2.7 1 .6 0 1.1-.1 1.6-.4.5-.3.9-.7 1.1-1.3 0-.1.1-.2.1-.3.2 2.3.4 4.6.4 7v.9h.5-.5l-1.5 110.1h-13.9l-1.5-8.4.2 1.8-16-87.7-.8-6.6c-.1-1.2-.2-2.4-.2-3.6 0-4.9 1.1-9.8 3.4-14.2l-.7-.4c-2.3 4.5-3.5 9.5-3.5 14.6 0 1.2.1 2.5.2 3.7l.8 6.6 6.7 36.9-1.6 57.3H97.9l-4.1-58.8c.8-.8 1.5-1.7 2.1-2.6.8-1.3 1.4-2.6 1.4-4 0-1.1-.3-2.2-1-3.2-.9-1.4-2.1-2.2-3.3-2.7l-1.1-15zm-26 36.5c0-2.3 1.7-4.8 3.8-7.1 2.1-2.2 4.6-4.2 6.1-5.4 1.7-1.4 4.1-3.6 6.8-5.4 2.7-1.8 5.6-3.3 8.1-3.3 1.8 0 3.4.7 4.7 2.6l.3-.2-.3.2c.6.9.9 1.8.9 2.7 0 1.2-.5 2.4-1.2 3.6-2.3 3.6-7.6 7.1-10.8 9.6-1.8 1.4-4.2 3.3-6.6 4.7-2.4 1.5-4.9 2.6-7 2.6-1.5 0-2.8-.5-3.9-2-.6-.7-.9-1.6-.9-2.6zm6.6 68.5H38.1v-33.6h34.3V435zm0-34.2H38.1v-2.1h34.3v2.1zm0-2.6H38.1v-2.1h34.3v2.1zm0-2.6H38.1v-2.2h34.3v2.2zm-15.4-2.8v-8.4c0-1.9.4-3.8 1.2-5.5.8-1.7 2-3.2 3.4-4.4l1.7-1.4 3.4 4.9c-.8.8-1.2 1.8-1.2 2.8 0 1.7.8 3.4 1.9 5.1 1 1.7 2.3 3.3 3.3 4.6.5.7 1.1 1.5 1.8 2.4H57.1zm10.7-14.7c.6-.4 1.2-.6 1.8-.6 1.5 0 3.2 1.1 4.7 2.6 1.5 1.4 2.8 3.1 3.6 4.1.9 1.1 2.4 2.8 3.7 4.7 1.2 1.8 2.2 3.8 2.2 5.5 0 1.2-.5 2.2-1.8 3.1-.6.4-1.2.6-1.8.6-.8 0-1.6-.3-2.4-.8-2.4-1.6-4.8-5.1-6.5-7.3-1-1.3-2.2-2.9-3.2-4.5s-1.7-3.3-1.7-4.7c.2-1.1.5-1.9 1.4-2.7zm33.5 56.6v.6H73v-42c.6.8 1.3 1.6 2 2.4.8.9 1.7 1.7 2.6 2.2.9.6 1.8 1 2.8 1 .8 0 1.5-.2 2.3-.7l-.2-.3.2.3c1.5-1 2.1-2.4 2.1-3.8 0-2-1.1-4-2.3-5.9-1.3-1.9-2.8-3.6-3.7-4.7-.8-1-2.1-2.7-3.7-4.2s-3.4-2.8-5.3-2.8c-.7 0-1.5.2-2.1.7l-3.4-4.9 2.6-2.1c1.1 1.3 2.6 1.8 4.1 1.8 2.4 0 5-1.2 7.4-2.7 2.5-1.5 4.8-3.4 6.7-4.8 2.1-1.6 5.2-3.7 7.7-6.1l.2-.2 4.1 58.9h4.1v16.5c0 .4.2.7.4 1h-.3zm1.2-.4c-.3 0-.6-.3-.6-.6v-16.5h5.7v10.2l-3.4 6.9h-1.7zm2.6 0l3.1-6.2 9.1 6.2h-12.2zm21.9.4v.6h-7.9v-.6h-.5v-.1c0-.2-.1-.4-.3-.5l-10-6.8v-10.1h2.9l1.5-53.2 9.7 53.2h4.2v16.5c0 .4.2.7.4 1zm1.1-.4c-.3 0-.6-.3-.6-.6v-16.5h5.7v10.2l-3.4 6.9h-1.7zm2.7 0l3.1-6.2 9.1 6.2h-12.2zm39.7-36.5c-1.3 0-2.3-1-2.3-2.3v-1.2c0-1.3 1-2.3 2.3-2.3h113.7c1.3 0 2.3 1 2.3 2.3v1.2c0 1.3-1 2.3-2.3 2.3H170.5zm-4.7 37.3l17.1-36.5h11.5l-25.1 36.5h-3.5zm4.4.2l25.2-36.7h64.1l25.2 36.7H170.2zm115.3-.2l-25.1-36.5h11.5l17.1 36.5h-3.5zM268.9 260.8H298.4v-.1H310v.1h21.8v-.1h16.7v-.7h-16.7v-24c0-3.8-3-6.9-6.7-7.1v-13.7c0-1-.8-1.8-1.8-1.8h-4.9c-1 0-1.8.8-1.8 1.8V229c-3.7.2-6.7 3.3-6.7 7.1v24h-11.6v-29.8H288.6V217h-10.3v7.3h-9.5v35.8h-13.3v.7h13.4zm41.9-24.8c0-1.7.7-3.3 1.8-4.4 1.1-1.1 2.7-1.8 4.4-1.8h.4v-14.5c0-.5.4-1 1-1h4.9c.5 0 1 .4 1 1v14.5h.4c3.5 0 6.3 2.8 6.3 6.3v24h-20.2V236zm-22-4.9h8.7V260h-8.7v-28.9zm-9.6-13.3h8.7V260h-8.7v-42.2zm-9.5 7.3h8.7V260h-8.7v-34.9z"/>
  </g>
  <path class="st5" d="M288.8 231.1h8.7V260h-8.7z"/>
  <g>
    <path class="st1" d="M144.4 252.8z"/>
    <path class="st6" d="M144.1 229.1c-1.4-2.5-3.6-4.4-6.3-5.4l-3.1-1.2c-.7-.3-1.5-.4-2.2-.4-.8 0-1.7.2-2.4.5l-7.5 3.2c-2.2.9-4.4 1.4-6.7 1.4-1.1 0-2.2-.1-3.3-.3l-.1 3.8c0 2.1-1.5 3.7-3.4 3.7s-3.4 1.7-3.4 3.7v12.1c0 7.4-4.3 13.7-10.2 16.1.3 1.3.6 2.5.8 3.7.8-.1 1.7-.4 2.5-.9 1.2-.7 2.3-1.7 3-3.1.3-.6 1.1-.8 1.7-.5.6.3.8 1.1.5 1.7-1 1.8-2.4 3.1-3.9 4-1 .6-2.1.9-3.1 1.1.9 3.8 1.7 6.9 2.2 8.5.1.4.2.8.3 1H132c.5-.6 1-1.1 1.6-1.7.5-.6 1.2-1.3 1.8-2.1l.6-39.2 8.7 13.9c.5.8.7 1.6.7 2.5 0 .7-.2 1.5-.5 2.1l-7 13.8.7 2.5 1.9 6.8 15.9-22.3c.7-1 1.1-2.3 1.1-3.5 0-1-.2-2-.7-2.9l-12.7-22.6zM99.3 282.6v4.3h31.8v-.1c-.4-.8-.6-1.5-.6-2.1 0-.8.3-1.5.7-2.1H99.3zM38.1 393.4h34.3v2.2H38.1zM38.1 401.4h34.3V435H38.1zM38.1 396.1h34.3v2.1H38.1zM38.1 398.7h34.3v2.1H38.1zM269.7 225.1h8.7V260h-8.7zM324.7 229.8h-.4v-14.5c0-.5-.4-1-1-1h-4.9c-.5 0-1 .4-1 1v14.5h-.4c-1.7 0-3.3.7-4.4 1.8-1.1 1.1-1.8 2.7-1.8 4.4v24H331v-24c0-3.4-2.8-6.2-6.3-6.2z"/>
  </g>
  <path class="st7" d="M279.2 217.8h8.7V260h-8.7z"/>
</svg>
