<?xml version="1.0" encoding="utf-8"?>
<svg width="10px" height="11px" viewBox="0 0 10 11" version="1.1" xmlns:xlink="http://www.w3.org/1999/xlink" xmlns="http://www.w3.org/2000/svg">
  <g id="001-foreign">
    <g id="001-foreign">
      <path d="M6.49997 0L2.49996 0C2.22382 0 1.99995 0.223867 1.99995 0.500006C1.99995 0.776145 2.22382 1.00001 2.49996 1.00001L5.29287 1.00001L0.146422 6.14647C-0.0488073 6.3417 -0.0488073 6.65829 0.146422 6.85356C0.244026 6.95117 0.371987 7 0.499948 7C0.62791 7 0.755892 6.95117 0.853475 6.85354L5.99999 1.70711L5.99999 4.50001C5.99999 4.77615 6.22385 5.00002 6.49999 5.00002C6.77613 5.00002 7 4.77615 7 4.50001L7 0.500006C6.99998 0.223867 6.77611 0 6.49997 0Z" transform="translate(3 0)" id="Path" fill="#FFFFFF" fill-rule="evenodd" stroke="#FFFFFF" stroke-width="3%" />
      <path d="M7.55553 2.99999C7.31008 2.99999 7.11108 3.22386 7.11108 3.5L7.11108 8.00001L0.888878 8.00001L0.888878 0.99999L4.88888 0.99999C5.13433 0.99999 5.33333 0.776123 5.33333 0.499984C5.33333 0.223846 5.13433 0 4.88888 0L0.444449 0C0.198993 0 0 0.223867 0 0.500006L0 8.50002C0 8.77613 0.198993 9 0.444449 9L7.55555 9C7.80101 9 8 8.77613 8 8.49999L8 3.5C7.99998 3.22386 7.80099 2.99999 7.55553 2.99999Z" transform="translate(0 2)" id="Path" fill="#FFFFFF" fill-rule="evenodd" stroke="#FFFFFF" stroke-width="3%" />
    </g>
  </g>
</svg>