<?xml version="1.0" encoding="utf-8"?>
<svg width="20px" height="20px" viewBox="0 0 20 20" version="1.1" xmlns:xlink="http://www.w3.org/1999/xlink" xmlns="http://www.w3.org/2000/svg">
  <g id="001-instagram">
    <path d="M5 1.44232e-15C2.23693 1.44232e-15 0 2.23936 0 5C0 7.76307 2.23936 10 5 10C7.76307 10 10 7.76064 10 5C10 2.23693 7.76064 0 5 1.44232e-15ZM5 8.24537C3.2064 8.24537 1.75463 6.79279 1.75463 5C1.75463 3.20721 3.20721 1.75463 5 1.75463C6.79279 1.75463 8.24537 3.20721 8.24537 5C8.24618 6.79279 6.7936 8.24537 5 8.24537L5 8.24537Z" transform="translate(4.4999146 4.3964233)" id="Shape" fill="#00BAAE" stroke="none" />
    <path d="M14.1235 0.0628211C12.2835 -0.0230107 7.72602 -0.0188441 5.88436 0.0628211C4.26602 0.138653 2.83852 0.52948 1.68769 1.68029C-0.235644 3.60359 0.0101894 6.19521 0.0101894 9.99598C0.0101894 13.8859 -0.206477 16.4175 1.68769 18.3117C3.61852 20.2416 6.24769 19.9891 10.0035 19.9891C13.8569 19.9891 15.1869 19.9916 16.5494 19.4641C18.4019 18.745 19.8002 17.0892 19.9369 14.1151C20.0235 12.2743 20.0185 7.71769 19.9369 5.87605C19.7719 2.36528 17.8877 0.236151 14.1235 0.0628211ZM17.036 17.0392C15.7752 18.3 14.026 18.1875 9.97936 18.1875C5.81269 18.1875 4.14186 18.2492 2.92269 17.0267C1.51852 15.6292 1.77269 13.3851 1.77269 9.98265C1.77269 5.37856 1.30019 2.06279 5.92102 1.82612C6.98269 1.78862 7.29519 1.77612 9.96769 1.77612L10.0052 1.80112C14.446 1.80112 17.9302 1.33613 18.1394 5.95605C18.1869 7.0102 18.1977 7.32686 18.1977 9.99515C18.1969 14.1134 18.2752 15.7942 17.036 17.0392Z" transform="translate(-0.5000856 -0.6035767)" id="Shape" fill="#00BAAE" stroke="none" />
    <path d="M1 2C1.55228 2 2 1.55228 2 1C2 0.447715 1.55228 0 1 0C0.447715 0 0 0.447715 0 1C0 1.55228 0.447715 2 1 2Z" transform="translate(14.499914 3.3964233)" id="Oval" fill="#00BAAE" stroke="none" />
  </g>
</svg>