<svg id="Calque_1" data-name="Calque 1" xmlns="http://www.w3.org/2000/svg" viewBox="0 0 223 52.7"><defs><style>.cls-1,.cls-2,.cls-3{fill:#fff;}.cls-2{opacity:0.8;}.cls-2,.cls-3{isolation:isolate;}.cls-3{opacity:0.6;}</style></defs><path class="cls-1" d="M117,56.4a1.93,1.93,0,0,0,2.2-1.6v-7c0-8.6-4.2-13.3-12.1-14v7.3c3.5.8,4,3.7,4,7.6V50H98.8V48.7c0-4.3.8-6.9,3.9-7.6V33.8c-7.8.7-12,5.4-12,14V59.2c0,9.3,5,14,14.3,14,8.8,0,14.1-4.4,14.1-12.9v-.2h-8c0,3.8-1.8,5.9-6.1,5.9-5.5,0-6.2-3.2-6.2-7.8V56.4Z" transform="translate(-40.2 -20.7)"/><path class="cls-1" d="M55.6,64.3c-1-1.2-1.3-2.8-1.3-5.8V44.7H46.2V58.5c0,5.4.9,8.6,3.2,11.1,2,2.3,5.2,3.6,9.8,3.6a16.15,16.15,0,0,0,3.1-.2V65.8a10.87,10.87,0,0,1-1.8.1c-2.5,0-4.1-.5-4.9-1.6" transform="translate(-40.2 -20.7)"/><polygon class="cls-1" points="14 13.4 14 4.3 5.9 4.3 5.9 13.4 0 13.4 0 19.6 22.2 19.6 22.2 13.4 14 13.4"/><path class="cls-1" d="M153.5,48c0-4.1-.8-6.9-2.3-9h0a11.54,11.54,0,0,0-4.3-3.6l-.5-.2h-.1a11.07,11.07,0,0,0-2.6-.7,13.2,13.2,0,0,0-2.8-.2,11,11,0,0,0-8.8,3.7l-.2-3.2h-7.3V73.4h8.1V50c0-3.2.6-5.3,2.1-6.8a6.49,6.49,0,0,1,4.6-1.6,5.3,5.3,0,0,1,4.4,1.6c1.2,1.3,1.7,2.9,1.7,6.3V73.2h8.1L153.5,48Z" transform="translate(-40.2 -20.7)"/><path class="cls-1" d="M170.8,37.5a12.25,12.25,0,0,0-9.1-3.3,13.5,13.5,0,0,0-7.1,1.9,17,17,0,0,1,2.8,6.1,7.1,7.1,0,0,1,2.9-.5,5.51,5.51,0,0,1,4.4,1.6c1.2,1.3,1.7,2.9,1.7,6.3V73.3h8.1V48c-.2-5.2-1.5-8.3-3.7-10.5" transform="translate(-40.2 -20.7)"/><path class="cls-1" d="M255.2,34.1v2.7h0V57.2c0,3.2-.5,5.3-2.1,6.8a7.4,7.4,0,0,1-4.8,1.7,5.8,5.8,0,0,1-4.5-1.7c-1.2-1.4-1.5-2.9-1.5-6.3V49c0-3.5.3-5.2,1.5-6.4,1-1.1,2.4-1.6,4.5-1.6a9.86,9.86,0,0,1,2.4.3V34.2a13.2,13.2,0,0,0-3.9-.6,13.36,13.36,0,0,0-9.2,3.3c-2.2,2.2-3.4,5.3-3.4,10.5V59.2c0,5.2,1.2,8.3,3.4,10.5a12.48,12.48,0,0,0,9.2,3.3,11,11,0,0,0,9.2-4.4l.2,4h7V34h-8Z" transform="translate(-40.2 -20.7)"/><path class="cls-1" d="M208.3,48c0-4.1-.8-6.9-2.3-9h0a11.54,11.54,0,0,0-4.3-3.6l-.5-.2h-.1a11.07,11.07,0,0,0-2.6-.7,13.2,13.2,0,0,0-2.8-.2,11,11,0,0,0-8.8,3.7l-.2-3.2h-7.3V73.4h8.1V50c0-3.2.6-5.3,2.1-6.8a6.49,6.49,0,0,1,4.6-1.6,5.3,5.3,0,0,1,4.4,1.6c1.2,1.3,1.7,2.9,1.7,6.3V73.2h8.1L208.3,48Z" transform="translate(-40.2 -20.7)"/><path class="cls-1" d="M225.6,37.5a12.25,12.25,0,0,0-9.1-3.3,13.5,13.5,0,0,0-7.1,1.9,17,17,0,0,1,2.8,6.1,7.1,7.1,0,0,1,2.9-.5,5.51,5.51,0,0,1,4.4,1.6c1.2,1.3,1.7,2.9,1.7,6.3V73.3h8.1V48c-.1-5.2-1.5-8.3-3.7-10.5" transform="translate(-40.2 -20.7)"/><path class="cls-1" d="M75,34.6l.2,4.4a10,10,0,0,1,9-4.9,28.25,28.25,0,0,1,2.9.2V42a14.77,14.77,0,0,0-2.1-.1c-3.2,0-5.8.7-7.4,2.3-1.4,1.5-2.1,3.5-2.1,6.8V73.2H67.4V34.6Z" transform="translate(-40.2 -20.7)"/><path class="cls-2" d="M102.5,20.7A4.27,4.27,0,0,0,98.2,25v4.3h4.3a4.33,4.33,0,0,0,4.3-4.3,4.21,4.21,0,0,0-4.3-4.3" transform="translate(-40.2 -20.7)"/><path class="cls-3" d="M107.4,29.4a4.44,4.44,0,0,0,3.9-2.4,4.55,4.55,0,0,0,.5-2V20.7h-4.3a4.55,4.55,0,0,0-2,.5,4.33,4.33,0,0,0-1.9,5.8,4.56,4.56,0,0,0,3.8,2.4" transform="translate(-40.2 -20.7)"/><path class="cls-1" d="M105,21.4a4.36,4.36,0,0,0-1.1,6.1,5.73,5.73,0,0,0,1.1,1.1,4.36,4.36,0,0,0,1.1-6.1,5.73,5.73,0,0,0-1.1-1.1" transform="translate(-40.2 -20.7)"/></svg>