<?xml version="1.0" encoding="utf-8"?>
<!-- Generator: Adobe Illustrator 24.1.0, SVG Export Plug-In . SVG Version: 6.00 Build 0)  -->
<svg version="1.1" id="Calque_1" xmlns="http://www.w3.org/2000/svg" xmlns:xlink="http://www.w3.org/1999/xlink" x="0px" y="0px"
	 viewBox="0 0 500 500" style="enable-background:new 0 0 500 500;" xml:space="preserve">
<style type="text/css">
	.st0{fill:#FFFFFF;}
	.st1{fill:#4F2F77;}
</style>
<g id="Calque_1_1_">
	<path class="st0" d="M197.5,292.7c-4.2-7.3-8.3-14.6-12.5-21.8c-5.9-10.3-11.8-20.4-17.7-30.7c-4.4-7.6-8.6-15.2-13-22.9
		l-11.4-19.5c-5.1-8.8-10.1-17.6-15-26.5c-1.5-2.5-3.3-3.7-6.5-3.6c-8.2,0.3-16.5,0.1-24.7,0.1h-26c-4,0-4.4,0.7-2.6,4.1
		c1.5,2.7,3,5.5,4.6,8.2c3.7,6.4,7.4,12.9,11.1,19.4c4.4,7.6,8.8,15.1,13.1,22.8c4.4,7.7,8.7,15.4,13.1,23
		c3.8,6.6,7.7,13.2,11.5,19.8c5.2,9,10.3,17.9,15.3,26.9c5.1,8.9,10.3,17.7,15.3,26.6c4.4,7.6,8.7,15.2,13,22.9
		c4.6,8,9.2,15.9,13.8,23.9c1.9,3.2,3.9,6.4,5.9,9.7c1.3,1.5,2.1,1.3,3.1-0.3c1.2-2,2.5-3.9,3.6-5.9c7.4-13,14.9-25.9,22.2-38.9
		c1.2-2.1,3.1-4.1,1.2-7.2C208.8,312.9,203.2,302.7,197.5,292.7L197.5,292.7z"/>
	<path class="st0" d="M250,0C111.9,0,0,111.9,0,250s111.9,250,250,250s250-111.9,250-250S388.1,0,250,0z M493.3,270.5
		c-0.7,7.4-2,14.8-3.1,22.2c-0.8,4.9-1.7,9.9-2.7,14.6c-0.9,3.8-2,7.4-3.1,11.1c-0.8,2.8-1.7,5.7-2.6,8.4
		c-3.2,8.5-6.2,17.1-10.1,25.4c-3.9,8.5-8.2,16.9-13,24.9c-7.7,13-16.8,24.9-26.9,36.2c-11,12.4-23.3,23.5-36.6,33.4
		c-11.1,8.2-22.8,15.7-35.4,21.6c-8.5,3.9-17,7.9-25.7,11.4c-4.9,2.1-10.2,3.3-15.2,4.8c-6.7,1.9-13.5,3.9-20.3,5.3
		c-7.1,1.4-14.5,2-21.7,3.1c-13.4,2.1-26.8,2.1-40.2,1.4c-9.1-0.5-18.2-2-27.2-3.3c-7.8-1.3-15.6-2.8-23.3-4.7
		c-5.6-1.4-10.8-3.4-16.3-5.3c-4.5-1.6-9.1-3.1-13.5-4.9c-5-2.1-9.9-4.1-14.6-6.6c-6.9-3.8-13.9-7.6-20.6-11.8
		c-20.3-12.6-38.7-27.6-54.1-45.9c-7.5-8.9-14.7-18.3-21.3-27.8c-5.1-7.3-9.2-15.3-13.3-23.2c-3.5-6.7-6.7-13.7-9.6-20.8
		c-2.6-6.7-4.8-13.7-6.8-20.7c-2-6.6-3.9-13.3-5.3-20c-1.4-6.8-2-13.9-3-20.8c-2.3-15-2.3-30.1-1.2-45.2c0.8-10.2,2.1-20.3,4-30.3
		c1.8-9.2,4.6-18.2,7.3-27.2c2-6.6,4.1-13.2,6.9-19.5c4.1-9.1,8.7-17.9,13.4-26.7C44.3,118,52,107.3,60.3,97.2
		C69.4,85.9,79.4,75.4,90.5,66c10.3-8.8,21-17,32.6-23.8c9.5-5.6,19.4-10.4,29.5-15.1c6.9-3.2,14.3-5.9,21.7-8.2
		c8.7-2.8,17.4-5.4,26.3-7.4c5.9-1.4,12.1-1.7,18.1-2.7c15.1-2.6,30.6-2.2,46-1.7c9.3,0.4,18.6,2.1,27.7,3.4
		c4.9,0.7,9.9,1.6,14.6,2.7c6.1,1.6,12,3.4,18,5.3c4.4,1.4,8.7,2.9,13,4.6c5.6,2.1,11.2,4.3,16.5,6.9c7.1,3.5,14.2,7.5,21.1,11.5
		c11.5,6.6,22.2,14.6,32.3,23.1c12.3,10.4,23.4,21.8,33.2,34.5c6.2,7.9,11.6,16.4,17.4,24.6c1.3,1.9,1.2,3.6-0.5,5.5
		c-10.9,12.3-22.1,24.4-32.4,37.2c-9.9,12.2-19.1,24.9-28.1,37.7c-8.3,11.7-16.2,23.8-23.8,35.9c-6.7,10.8-13,22.1-19.2,33.2
		c-4.2,7.4-8.1,15-12.2,22.7c-0.5,1-1.1,1.9-1.6,2.8c-0.3-0.3-0.7-0.6-1-0.8c-5.1-8.9-10.1-17.8-15.1-26.7
		c-5.1-8.9-10.4-17.7-15.4-26.5c-5.1-8.8-10.1-17.6-15-26.4c-5.1-8.9-10.3-17.7-15.3-26.6c-3.8-6.6-7.5-13.3-11.3-19.9
		c-1.4-2.3-2.9-4-6.1-3.9c-16.9,0.1-33.7,0.1-50.6,0.1H209c-2.1,0.1-3,1-2.1,3c1.8,3.4,3.6,6.8,5.6,10.2c4.5,8,9.1,16,13.7,24
		c4.4,7.6,8.8,15.1,13.2,22.8c4.3,7.5,8.6,15,13,22.6c3.9,6.7,7.9,13.6,11.7,20.3c4.3,7.5,8.5,15,12.9,22.6
		c5.9,10.3,11.8,20.4,17.7,30.7c5.1,9,10.2,18,15.3,26.9c4.6,8.1,9.4,16.1,14.1,24.1c1,1.8,2,2,2.9,0.1c1.3-2.4,2.4-5,3.5-7.5
		c4.3-10,8.5-20,13-29.9c3.6-7.9,7.4-15.6,11.4-23.2c4.9-9.5,9.8-18.9,14.8-28.4c3.7-6.9,7.7-13.7,11.6-20.4c5-8.3,9.9-16.6,15-24.8
		c5.4-8.5,10.9-16.9,16.7-25.1c7.1-10.1,14.4-20.2,22.1-29.8c10.6-13.2,21.8-25.9,32.7-38.7c1.7-1.9,2.4-1.8,3.4,0.6
		c3.2,7.7,6.7,15.3,9.6,23.2c2.1,5.8,3.5,11.8,5,17.8c2,8,4.2,16.1,5.4,24.3c1.8,12.2,3,24.4,2.6,36.8
		C493.6,256.8,493.8,263.8,493.3,270.5L493.3,270.5z"/>
	<path class="st1" d="M491.2,213.2c-1.2-8.2-3.4-16.3-5.4-24.3c-1.5-6-2.8-12-5-17.8c-2.8-7.9-6.3-15.5-9.6-23.2
		c-1-2.3-1.8-2.4-3.4-0.6c-10.9,12.8-22.1,25.5-32.7,38.7c-7.7,9.6-14.9,19.7-22.1,29.8c-5.8,8.2-11.3,16.6-16.7,25.1
		c-5.2,8.2-10.1,16.5-15,24.8c-3.9,6.7-7.9,13.5-11.6,20.4c-5.1,9.5-10,18.9-14.8,28.4c-4,7.6-7.8,15.3-11.4,23.2
		c-4.5,9.9-8.7,19.9-13,29.9c-1.1,2.5-2.2,5.1-3.5,7.5c-1,1.9-2,1.7-2.9-0.1c-4.7-8-9.5-16-14.1-24.1c-5.2-8.9-10.3-17.9-15.3-26.9
		c-5.9-10.3-11.8-20.4-17.7-30.7c-4.4-7.5-8.6-15-12.9-22.6c-3.8-6.7-7.8-13.6-11.7-20.3c-4.4-7.5-8.7-15-13-22.6
		c-4.4-7.6-8.8-15.1-13.2-22.8c-4.6-8-9.2-16-13.7-24c-2-3.3-3.8-6.7-5.6-10.2c-1-2.1,0-2.9,2.1-3h1.7c16.9,0,33.7,0,50.6-0.1
		c3.1-0.1,4.7,1.6,6.1,3.9c3.8,6.6,7.5,13.3,11.3,19.9c5.1,8.9,10.3,17.7,15.3,26.6l15,26.4c5.1,8.8,10.4,17.6,15.4,26.5
		c5.1,8.9,10.1,17.8,15.1,26.7c0.3,0.2,0.7,0.5,1,0.8c0.5-1,1.1-1.9,1.6-2.8c4.1-7.6,8-15.2,12.2-22.7c6.2-11.1,12.5-22.4,19.2-33.2
		c7.6-12.1,15.5-24.2,23.8-35.9c9-12.8,18.3-25.5,28.1-37.7c10.4-12.8,21.5-24.9,32.4-37.2c1.7-1.9,1.8-3.6,0.5-5.5
		c-5.8-8.2-11.2-16.7-17.4-24.6c-9.8-12.7-20.9-24.1-33.2-34.5c-10.2-8.6-20.8-16.5-32.3-23.1c-6.9-4-14-8-21.1-11.5
		c-5.3-2.6-10.9-4.8-16.5-6.9c-4.3-1.7-8.6-3.2-13-4.6c-6-1.9-11.9-3.7-18-5.3c-4.8-1.2-9.8-2.1-14.6-2.7c-9.2-1.4-18.5-3-27.7-3.4
		c-15.4-0.6-30.9-1-46,1.7c-6,1.1-12.2,1.4-18.1,2.7c-8.9,2.1-17.6,4.6-26.3,7.4c-7.4,2.3-14.7,5-21.7,8.2
		c-10.1,4.7-20,9.6-29.5,15.1c-11.6,6.8-22.4,15-32.6,23.8c-11,9.5-21.1,19.9-30.2,31.2c-8.3,10.2-16,20.8-22.1,32.4
		c-4.7,8.8-9.3,17.6-13.4,26.7c-2.8,6.3-5,12.9-6.9,19.5c-2.7,9.1-5.6,18.1-7.3,27.2c-2,10-3.2,20.1-4,30.3
		c-1.2,15.1-1.2,30.2,1.2,45.2c1.1,6.9,1.7,14,3,20.8c1.4,6.7,3.3,13.4,5.3,20c2.1,7,4.2,14,6.8,20.7c2.8,7.1,6.1,14.1,9.6,20.8
		c4.1,7.9,8.2,15.9,13.3,23.2c6.5,9.6,13.8,18.9,21.3,27.8c15.4,18.3,33.8,33.3,54.1,45.9c6.7,4.2,13.7,8,20.6,11.8
		c4.7,2.5,9.6,4.6,14.6,6.6c4.4,1.8,9,3.3,13.5,4.9c5.5,1.9,10.7,3.9,16.3,5.3c7.7,1.9,15.5,3.4,23.3,4.7c9.1,1.4,18.2,2.8,27.2,3.3
		c13.5,0.8,26.9,0.8,40.2-1.4c7.2-1.2,14.6-1.8,21.7-3.1c6.8-1.4,13.6-3.4,20.3-5.3c5.1-1.5,10.4-2.7,15.2-4.8
		c8.7-3.5,17.2-7.5,25.7-11.4c12.6-5.9,24.2-13.4,35.4-21.6c13.3-9.9,25.6-21,36.6-33.4c10.1-11.3,19.1-23.2,26.9-36.2
		c4.8-8,9.1-16.4,13-24.9c3.8-8.3,6.8-16.9,10.1-25.4c1-2.7,1.9-5.6,2.6-8.4c1.2-3.7,2.2-7.3,3.1-11.1c1.1-4.8,2-9.8,2.7-14.6
		c1.2-7.3,2.4-14.7,3.1-22.2c0.6-6.7,0.3-13.7,0.6-20.5C494.2,237.6,493,225.4,491.2,213.2L491.2,213.2z M213.7,330.1
		c-7.2,13-14.7,25.9-22.2,38.9c-1.1,2-2.4,3.9-3.6,5.9c-1,1.6-1.9,1.8-3.1,0.3c-2-3.2-4-6.4-5.9-9.7c-4.6-8-9.2-15.9-13.8-23.9
		c-4.3-7.6-8.6-15.2-13-22.9c-5.1-8.9-10.3-17.7-15.3-26.6c-5.1-9-10.2-17.9-15.3-26.9c-3.8-6.6-7.7-13.2-11.5-19.8
		c-4.4-7.6-8.7-15.3-13.1-23c-4.3-7.6-8.7-15.1-13.1-22.8c-3.7-6.5-7.4-13-11.1-19.4c-1.6-2.7-3.1-5.5-4.6-8.2
		c-1.8-3.4-1.4-4.1,2.6-4.1h25.9c8.2,0,16.5,0.2,24.7-0.1c3.2-0.1,5.1,1.1,6.5,3.6c5,8.9,10,17.7,15,26.5l11.4,19.5
		c4.4,7.6,8.6,15.2,13,22.9c5.9,10.3,11.8,20.4,17.7,30.7c4.2,7.2,8.3,14.5,12.5,21.8c5.8,10.1,11.3,20.2,17.4,30.2
		C216.8,326,214.8,327.9,213.7,330.1L213.7,330.1z"/>
</g>
</svg>
